<?xml version="1.0" encoding="utf-8"?>
<!-- Generator: Adobe Illustrator 16.0.0, SVG Export Plug-In . SVG Version: 6.00 Build 0)  -->
<!DOCTYPE svg PUBLIC "-//W3C//DTD SVG 1.1//EN" "http://www.w3.org/Graphics/SVG/1.1/DTD/svg11.dtd">
<svg version="1.1" xmlns="http://www.w3.org/2000/svg" xmlns:xlink="http://www.w3.org/1999/xlink" x="0px" y="0px" width="661px"
	 height="221px" viewBox="0 0 661 221" enable-background="new 0 0 661 221" xml:space="preserve">
<symbol  id="Novo_símbolo_5" viewBox="-17.345 -17.344 34.688 34.688">
	<g opacity="0.1">
		<path fill="#EAD085" d="M17.343,0c0-9.579-7.765-17.344-17.344-17.344C-9.58-17.344-17.345-9.579-17.345,0
			c0,9.579,7.765,17.344,17.344,17.344C9.578,17.344,17.343,9.579,17.343,0z"/>
	</g>
	<text transform="matrix(1 0 0 -1 -6.3193 -7.873)" fill="#FFF4ED" font-family="'MyriadPro-Regular'" font-size="24.224">#</text>
</symbol>
<symbol  id="Novo_símbolo_6" viewBox="-17.344 -17.344 34.688 34.688">
	<g opacity="0.1">
		<path fill="#EAD085" d="M17.344,0c0-9.579-7.765-17.344-17.344-17.344c-9.579,0-17.344,7.766-17.344,17.344
			c0,9.579,7.765,17.344,17.344,17.344C9.579,17.345,17.344,9.58,17.344,0z"/>
	</g>
	<g>
		<text transform="matrix(1 0 0 -1 -4.9561 -7.6367)" fill="#EAD085" font-family="'PancettaPro-SemiBold'" font-size="19.2124">#</text>
	</g>
</symbol>
<g id="azul">
</g>
<g id="sem_textura">
</g>
<g id="degrades">
</g>
<g id="cometa">
</g>
<g id="_x30_1">
</g>
<g id="_x30_1azul">
</g>
<g id="fundao">
</g>
<g id="atras_planeta">
</g>
<g id="planeta">
</g>
<g id="Camada_19">
</g>
<g id="crateras">
</g>
<g id="Camada_6">
</g>
<g id="aneis">
</g>
<g id="menina_face">
</g>
<g id="img_apagar" display="none">
</g>
<g id="texto_e_menina">
	<g>
		<g>
			<path fill="#FFFFFF" d="M4.863,111.189V93.178c0-6.039,1.737-10.55,5.214-13.535c3.477-2.984,9.217-4.478,17.223-4.478
				c8.145,0,13.799,1.459,16.959,4.372c3.16,2.914,4.74,7.462,4.74,13.641v12.324c-3.441,0.843-8.498,1.264-15.169,1.264H18.767
				v4.424c0,3.371,0.807,5.76,2.424,7.163c1.614,1.405,4.492,2.106,8.637,2.106c3.02,0,5.951-0.279,8.796-0.842
				c2.844-0.562,4.933-1.088,6.267-1.58c1.334-0.491,2.002-0.772,2.002-0.843l0.105,0.21c0.069,0.142,0.14,0.353,0.211,0.633
				c0.068,0.281,0.14,0.579,0.211,0.895c0.068,0.316,0.139,0.722,0.21,1.212c0.069,0.492,0.105,0.984,0.105,1.475
				c0,0.773-0.071,1.527-0.21,2.265c-0.143,0.737-0.282,1.282-0.422,1.633l-0.211,0.421c-4.355,2.178-10.043,3.266-17.064,3.266
				c-8.848,0-15.221-1.509-19.118-4.529C6.812,121.654,4.863,117.159,4.863,111.189z M18.767,98.023h17.064v-4.846
				c0-3.371-0.615-5.757-1.843-7.163c-1.229-1.403-3.46-2.106-6.688-2.106c-3.23,0-5.461,0.703-6.689,2.106
				c-1.229,1.406-1.844,3.792-1.844,7.163V98.023z"/>
			<path fill="#FFFFFF" d="M91.763,128.148v-3.37c-0.421,0.352-1.037,0.773-1.844,1.264c-0.808,0.492-2.492,1.143-5.056,1.949
				c-2.563,0.806-5.179,1.211-7.847,1.211c-5.688,0-9.797-1.509-12.324-4.529c-2.528-3.019-3.793-7.514-3.793-13.483V76.113
				c2.318-0.421,4.635-0.632,6.953-0.632l6.951,0.632v35.076c0,3.371,0.527,5.76,1.58,7.163c1.054,1.405,2.949,2.106,5.688,2.106
				c2.036,0,3.86-0.315,5.478-0.947c1.614-0.633,2.702-1.265,3.266-1.896l0.947-0.948V76.113c2.317-0.421,4.635-0.632,6.952-0.632
				l6.952,0.632v52.035c-2.317,0.422-4.635,0.633-6.952,0.633L91.763,128.148z"/>
			<path fill="#FFFFFF" d="M155.7,76.113v3.371c0.422-0.351,1.035-0.754,1.844-1.212c0.806-0.455,2.491-1.088,5.056-1.896
				c2.562-0.807,5.178-1.212,7.847-1.212c5.688,0,9.761,1.493,12.219,4.478c2.458,2.985,3.688,7.496,3.688,13.535v18.012
				c0,5.97-1.475,10.465-4.424,13.483c-2.949,3.021-7.832,4.529-14.643,4.529c-2.316,0-4.441-0.281-6.372-0.843
				c-1.933-0.562-3.284-1.122-4.056-1.686l-1.158-0.843v23.385c-2.248,0.421-4.566,0.632-6.952,0.632l-6.952-0.632V76.113
				c2.317-0.421,4.635-0.632,6.952-0.632L155.7,76.113z M172.448,111.189V93.178c0-3.371-0.51-5.757-1.527-7.163
				c-1.019-1.403-2.862-2.106-5.53-2.106c-2.038,0-3.862,0.3-5.478,0.896c-1.615,0.598-2.738,1.211-3.371,1.843l-0.842,0.948v23.595
				c0,3.302,0.685,5.672,2.054,7.11c1.37,1.44,3.703,2.159,7.005,2.159c2.879,0,4.88-0.701,6.004-2.106
				C171.886,116.949,172.448,114.561,172.448,111.189z"/>
			<path fill="#FFFFFF" d="M212.159,76.113v5.372c0.139-0.14,0.368-0.368,0.684-0.685c0.316-0.316,1.001-0.824,2.055-1.527
				c1.053-0.701,2.176-1.333,3.371-1.896c1.192-0.562,2.738-1.07,4.635-1.527c1.896-0.456,3.826-0.686,5.793-0.686
				c0.421,1.265,0.632,2.775,0.632,4.53c0,0.773-0.053,1.545-0.158,2.316c-0.104,0.774-0.229,1.37-0.368,1.791l-0.105,0.526
				c-2.107,0-4.108,0.335-6.004,1.001c-1.896,0.668-3.46,1.458-4.688,2.37c-1.23,0.913-2.301,1.844-3.213,2.791
				c-0.914,0.948-1.58,1.738-2.002,2.37l-0.631,1.054v34.233c-2.318,0.422-4.635,0.633-6.953,0.633l-6.951-0.633V76.113
				c2.316-0.421,4.635-0.632,6.951-0.632L212.159,76.113z"/>
			<path fill="#FFFFFF" d="M238.913,111.189V93.178c0-5.968,1.754-10.463,5.266-13.482c3.512-3.019,9.27-4.53,17.275-4.53
				s13.781,1.512,17.328,4.53c3.545,3.02,5.318,7.515,5.318,13.482v18.012c0,5.97-1.773,10.465-5.318,13.483
				c-3.547,3.021-9.322,4.529-17.328,4.529c-7.937,0-13.678-1.509-17.223-4.529C240.685,121.654,238.913,117.159,238.913,111.189z
				 M252.816,93.178v18.012c0,3.302,0.632,5.672,1.896,7.11c1.264,1.44,3.511,2.159,6.741,2.159c3.229,0,5.494-0.719,6.794-2.159
				c1.299-1.438,1.948-3.809,1.948-7.11V93.178c0-3.371-0.649-5.757-1.948-7.163c-1.3-1.403-3.565-2.106-6.794-2.106
				c-3.23,0-5.478,0.703-6.741,2.106C253.448,87.421,252.816,89.807,252.816,93.178z"/>
			<path fill="#FFFFFF" d="M326.235,132.257v-6.32c-0.071,0.142-0.492,0.458-1.265,0.948c-0.773,0.492-2.106,1.001-4.003,1.527
				s-4.002,0.79-6.32,0.79c-6.74,0-11.604-1.509-14.588-4.529c-2.986-3.019-4.477-7.514-4.477-13.483V93.178
				c0-5.968,1.245-10.463,3.738-13.482c2.492-3.019,6.548-4.53,12.166-4.53c2.668,0,5.23,0.353,7.689,1.054
				c2.458,0.703,4.248,1.405,5.373,2.106l1.686,1.159v-3.371c2.176-0.421,4.492-0.632,6.951-0.632l6.953,0.632v56.144
				c0,5.968-1.949,10.463-5.847,13.483c-3.897,3.018-10.307,4.529-19.224,4.529c-2.949,0-5.83-0.194-8.638-0.58
				c-2.81-0.387-4.882-0.79-6.214-1.211l-2.002-0.632c-0.492-1.124-0.737-2.564-0.737-4.319c0-0.492,0.017-0.983,0.053-1.475
				c0.034-0.492,0.087-0.896,0.157-1.211c0.07-0.316,0.158-0.615,0.264-0.896c0.105-0.281,0.193-0.492,0.264-0.632v-0.211
				c0,0.069,0.685,0.298,2.054,0.685c1.37,0.386,3.44,0.772,6.215,1.159c2.773,0.385,5.636,0.579,8.585,0.579
				c4.213,0,7.127-0.703,8.742-2.106C325.427,138.014,326.235,135.628,326.235,132.257z M309.486,93.178v18.012
				c0,3.371,0.562,5.76,1.686,7.163c1.122,1.405,3.16,2.106,6.109,2.106c3.3,0,5.617-0.719,6.952-2.159
				c1.333-1.438,2.002-3.809,2.002-7.11V87.595c-0.211-0.279-0.527-0.632-0.949-1.053c-0.421-0.422-1.457-0.965-3.107-1.633
				c-1.65-0.667-3.494-1.001-5.529-1.001c-2.67,0-4.529,0.703-5.583,2.106C310.013,87.421,309.486,89.807,309.486,93.178z"/>
			<path fill="#FFFFFF" d="M366.261,76.113v5.372c0.141-0.14,0.369-0.368,0.686-0.685c0.315-0.316,1-0.824,2.053-1.527
				c1.055-0.701,2.177-1.333,3.371-1.896c1.193-0.562,2.739-1.07,4.635-1.527c1.896-0.456,3.827-0.686,5.794-0.686
				c0.421,1.265,0.632,2.775,0.632,4.53c0,0.773-0.053,1.545-0.158,2.316c-0.105,0.774-0.229,1.37-0.369,1.791l-0.104,0.526
				c-2.106,0-4.108,0.335-6.005,1.001c-1.896,0.668-3.459,1.458-4.688,2.37c-1.229,0.913-2.301,1.844-3.212,2.791
				c-0.913,0.948-1.58,1.738-2.001,2.37l-0.633,1.054v34.233c-2.316,0.422-4.635,0.633-6.951,0.633l-6.953-0.633V76.113
				c2.318-0.421,4.635-0.632,6.953-0.632L366.261,76.113z"/>
			<path fill="#FFFFFF" d="M421.56,57.996c-3.301,0-5.582,0.702-6.846,2.106c-1.265,1.405-1.896,3.792-1.896,7.163v15.8
				c0,6.462-1.896,11.025-5.688,13.693c3.791,2.67,5.688,7.199,5.688,13.589v15.8c0,3.371,0.632,5.757,1.896,7.163
				c1.264,1.403,3.545,2.106,6.846,2.106c0.422,1.122,0.633,2.562,0.633,4.318c0,0.772-0.053,1.527-0.158,2.265
				s-0.194,1.281-0.264,1.633l-0.211,0.527c-7.584,0-13.061-1.512-16.432-4.53c-3.371-3.02-5.057-7.515-5.057-13.482v-15.8
				c0-3.301-0.649-5.67-1.948-7.11c-1.3-1.438-3.565-2.159-6.794-2.159c-0.422-1.123-0.632-2.562-0.632-4.319
				c0-0.771,0.053-1.527,0.157-2.265c0.105-0.737,0.228-1.28,0.369-1.633l0.105-0.526c3.229,0,5.494-0.719,6.794-2.159
				c1.299-1.438,1.948-3.809,1.948-7.11v-15.8c0-5.968,1.686-10.463,5.057-13.483c3.371-3.019,8.848-4.529,16.432-4.529
				c0.422,1.124,0.633,2.599,0.633,4.424c0,0.774-0.053,1.527-0.158,2.265s-0.194,1.248-0.264,1.527L421.56,57.996z"/>
			<path fill="#FFFFFF" d="M462.007,128.148v-3.37c-0.421,0.352-1.053,0.773-1.896,1.264c-0.843,0.492-2.599,1.143-5.267,1.949
				c-2.67,0.806-5.408,1.211-8.217,1.211c-5.337,0-9.199-1.263-11.586-3.787c-2.389-2.524-3.582-6.313-3.582-11.364v-1.368
				c0-4.349,1.51-7.716,4.531-10.101c3.02-2.385,7.973-3.988,14.855-4.81l11.16-1.329v-4.425c0-2.878-0.615-4.95-1.843-6.214
				c-1.229-1.265-3.389-1.896-6.478-1.896c-3.021,0-5.127,0.598-6.32,1.791c-1.195,1.194-1.791,3.196-1.791,6.004v1.053
				c-2.107,0.422-4.284,0.633-6.531,0.633l-6.636-0.633v-1.053c0-5.617,1.544-9.778,4.635-12.482
				c3.089-2.702,8.638-4.056,16.644-4.056c7.934,0,13.622,1.406,17.063,4.214c3.44,2.81,5.161,7.022,5.161,12.64v36.13
				c-2.316,0.422-4.635,0.633-6.951,0.633L462.007,128.148z M462.007,105.137l-8.408,1.178c-5.469,0.764-8.215,2.934-8.234,6.51
				v1.342c0,2.202,0.49,3.8,1.475,4.797c0.982,0.998,2.738,1.496,5.268,1.496c2.105,0,3.984-0.309,5.635-0.931
				c1.649-0.621,2.756-1.241,3.318-1.863l0.947-0.934V105.137z"/>
			<path fill="#FFFFFF" d="M488.13,128.148V76.113c2.318-0.421,4.635-0.632,6.953-0.632l6.951,0.632v3.371
				c0.422-0.351,1.018-0.754,1.791-1.212c0.771-0.455,2.387-1.088,4.846-1.896c2.457-0.807,4.95-1.212,7.479-1.212
				c6.109,0,10.252,1.651,12.43,4.951c0.49-0.351,1.211-0.807,2.159-1.369c0.948-0.562,2.896-1.299,5.847-2.212
				c2.949-0.912,5.967-1.37,9.059-1.37c5.546,0,9.514,1.459,11.902,4.372c2.387,2.914,3.582,7.286,3.582,13.114v35.497
				c-2.249,0.422-4.566,0.633-6.953,0.633l-6.951-0.633V92.651c0-3.16-0.475-5.407-1.422-6.742
				c-0.949-1.333-2.687-2.001-5.215-2.001c-4.145,0-7.128,1.229-8.953,3.687v40.554c-2.317,0.422-4.635,0.633-6.952,0.633
				l-6.952-0.633V92.651c0-3.16-0.492-5.407-1.475-6.742c-0.984-1.333-2.738-2.001-5.268-2.001c-1.896,0-3.58,0.3-5.056,0.896
				c-1.475,0.598-2.493,1.211-3.055,1.843l-0.843,0.948v40.554c-2.316,0.422-4.635,0.633-6.951,0.633L488.13,128.148z"/>
			<path fill="#FFFFFF" d="M572.608,111.189V93.178c0-5.968,1.754-10.463,5.267-13.482c3.511-3.019,9.27-4.53,17.274-4.53
				c8.006,0,13.781,1.512,17.328,4.53c3.545,3.02,5.319,7.515,5.319,13.482v18.012c0,5.97-1.774,10.465-5.319,13.483
				c-3.547,3.021-9.322,4.529-17.328,4.529c-7.936,0-13.677-1.509-17.222-4.529C574.381,121.654,572.608,117.159,572.608,111.189z
				 M586.513,93.178v18.012c0,3.302,0.632,5.672,1.896,7.11c1.265,1.44,3.511,2.159,6.741,2.159c3.229,0,5.494-0.719,6.795-2.159
				c1.298-1.438,1.948-3.809,1.948-7.11V93.178c0-3.371-0.65-5.757-1.948-7.163c-1.301-1.403-3.565-2.106-6.795-2.106
				c-3.23,0-5.477,0.703-6.741,2.106C587.145,87.421,586.513,89.807,586.513,93.178z"/>
			<path fill="#FFFFFF" d="M627.593,57.996c-0.421-1.123-0.632-2.562-0.632-4.319c0-0.843,0.053-1.632,0.158-2.37
				c0.105-0.737,0.227-1.28,0.368-1.632l0.105-0.422c7.584,0,13.062,1.511,16.433,4.529c3.37,3.021,5.056,7.516,5.056,13.483v15.8
				c0,3.302,0.648,5.672,1.949,7.11c1.298,1.44,3.562,2.159,6.794,2.159c0.421,1.264,0.632,2.738,0.632,4.424
				c0,0.773-0.053,1.527-0.158,2.265s-0.194,1.282-0.264,1.633l-0.21,0.422c-3.231,0-5.496,0.721-6.794,2.159
				c-1.301,1.44-1.949,3.81-1.949,7.11v15.8c0,5.968-1.686,10.463-5.056,13.482c-3.371,3.019-8.849,4.53-16.433,4.53
				c-0.421-1.265-0.632-2.739-0.632-4.425c0-0.773,0.053-1.527,0.158-2.265s0.227-1.282,0.368-1.633l0.105-0.421
				c3.3,0,5.583-0.703,6.847-2.106c1.264-1.406,1.896-3.792,1.896-7.163v-15.8c0-6.39,1.896-10.919,5.688-13.589
				c-3.792-2.668-5.688-7.231-5.688-13.693v-15.8c0-3.371-0.633-5.758-1.896-7.163C633.176,58.698,630.893,57.996,627.593,57.996z"
				/>
		</g>
		<g>
			<path fill="#FFFFFF" d="M6.167,38.829V28.637c0-3.062,0.887-5.367,2.66-6.917c1.773-1.549,4.678-2.324,8.709-2.324
				c3.957,0,6.739,0.766,8.346,2.297c1.604,1.531,2.408,3.846,2.408,6.944v0.728c-0.859,0.188-1.736,0.28-2.633,0.28l-2.688-0.28
				v-0.728c0-1.941-0.402-3.323-1.205-4.145c-0.803-0.82-2.212-1.232-4.229-1.232c-2.016,0-3.426,0.412-4.229,1.232
				c-0.803,0.821-1.203,2.203-1.203,4.145v10.192c0,1.904,0.476,3.276,1.428,4.117c0.952,0.84,2.641,1.26,5.068,1.26
				c1.605,0,3.137-0.158,4.592-0.476c1.457-0.317,2.512-0.616,3.165-0.896s0.979-0.438,0.979-0.477l0.057,0.112
				c0,0.075,0.018,0.168,0.056,0.28c0.037,0.112,0.084,0.243,0.14,0.392c0.057,0.15,0.094,0.327,0.113,0.532
				c0.018,0.206,0.027,0.42,0.027,0.645c0,0.336-0.037,0.663-0.111,0.979c-0.076,0.318-0.15,0.552-0.225,0.7l-0.057,0.225
				c-2.091,1.231-5.004,1.848-8.736,1.848c-4.406,0-7.58-0.774-9.521-2.324C7.138,44.197,6.167,41.892,6.167,38.829z"/>
			<path fill="#FFFFFF" d="M51.026,47.566V45.55c-0.223,0.188-0.56,0.42-1.008,0.7c-0.447,0.28-1.419,0.654-2.912,1.12
				c-1.494,0.467-3.062,0.7-4.704,0.7c-2.987,0-5.134-0.774-6.44-2.324c-1.308-1.549-1.961-3.854-1.961-6.917v-18.93
				c0.971-0.224,1.961-0.336,2.969-0.336l2.969,0.336v18.93c0,1.942,0.336,3.324,1.008,4.145c0.672,0.822,1.848,1.232,3.528,1.232
				c1.381,0,2.622-0.196,3.724-0.588c1.102-0.393,1.857-0.774,2.269-1.148l0.56-0.616V19.899c1.009-0.224,1.998-0.336,2.969-0.336
				l3.024,0.336v27.667c-1.008,0.224-2.017,0.336-3.024,0.336L51.026,47.566z"/>
			<path fill="#FFFFFF" d="M69.06,19.899v3.081c0.074-0.112,0.197-0.243,0.365-0.393c0.168-0.148,0.55-0.429,1.147-0.84
				c0.597-0.41,1.231-0.774,1.904-1.092c0.672-0.317,1.549-0.606,2.632-0.868c1.082-0.261,2.203-0.393,3.36-0.393
				c0.187,0.598,0.28,1.271,0.28,2.017l-0.28,2.016c-1.195,0-2.343,0.178-3.444,0.532c-1.102,0.355-1.998,0.784-2.688,1.288
				c-0.691,0.504-1.299,1-1.82,1.484c-0.523,0.485-0.896,0.915-1.121,1.288l-0.336,0.504v19.042
				c-1.008,0.224-1.997,0.336-2.968,0.336l-2.968-0.336V19.899c0.971-0.224,1.96-0.336,2.968-0.336L69.06,19.899z"/>
			<path fill="#FFFFFF" d="M89.278,27.326v1.129c0,0.904,0.418,1.554,1.255,1.949c0.838,0.396,2.112,0.78,3.824,1.157
				c1.2,0.245,2.182,0.447,2.944,0.603c0.764,0.156,1.744,0.439,2.94,0.848c1.197,0.41,2.143,0.856,2.835,1.339
				c0.691,0.483,1.31,1.144,1.852,1.979c0.543,0.837,0.814,1.758,0.814,2.761v1.116c0,2.64-0.887,4.61-2.66,5.912
				c-1.773,1.301-4.676,1.951-8.709,1.951c-4.145,0-7.048-0.709-8.709-2.128c-1.662-1.419-2.492-3.585-2.492-6.497v-0.336
				c0.934-0.224,1.885-0.336,2.856-0.336l2.912,0.336v0.336c0,1.718,0.401,2.95,1.204,3.696c0.803,0.748,2.213,1.12,4.229,1.12
				c1.979,0,3.369-0.325,4.172-0.977c0.803-0.65,1.205-1.685,1.205-3.1v-1.116c0-0.931-0.468-1.638-1.402-2.122
				s-2.262-0.875-3.98-1.173c-1.16-0.253-2.111-0.46-2.855-0.622s-1.694-0.448-2.852-0.859c-1.157-0.41-2.062-0.849-2.716-1.316
				c-0.653-0.466-1.241-1.092-1.765-1.876s-0.783-1.68-0.783-2.688v-1.12c0-2.613,0.867-4.583,2.604-5.909
				c1.736-1.324,4.564-1.988,8.485-1.988c4.032,0,6.841,0.71,8.429,2.129c1.586,1.419,2.38,3.584,2.38,6.496v0.393
				c-0.972,0.187-1.941,0.279-2.912,0.279l-2.856-0.279v-0.393c0-1.68-0.373-2.893-1.119-3.641c-0.748-0.746-2.055-1.12-3.921-1.12
				c-1.904,0-3.249,0.33-4.032,0.989C89.67,24.908,89.278,25.934,89.278,27.326z"/>
			<path fill="#FFFFFF" d="M111.567,38.829V28.637c0-3.062,0.924-5.367,2.772-6.917c1.849-1.549,4.825-2.324,8.933-2.324
				s7.084,0.775,8.933,2.324c1.849,1.55,2.772,3.855,2.772,6.917v10.192c0,3.062-0.924,5.368-2.772,6.917
				c-1.849,1.55-4.825,2.324-8.933,2.324s-7.084-0.774-8.933-2.324C112.491,44.197,111.567,41.892,111.567,38.829z M117.504,28.637
				v10.192c0,1.904,0.429,3.276,1.288,4.117c0.858,0.84,2.352,1.26,4.48,1.26c2.09,0,3.564-0.42,4.424-1.26
				c0.859-0.841,1.289-2.213,1.289-4.117V28.637c0-1.904-0.43-3.276-1.289-4.116s-2.334-1.261-4.424-1.261
				c-2.129,0-3.622,0.421-4.48,1.261C117.933,25.36,117.504,26.732,117.504,28.637z"/>
		</g>
		<g>
			<path fill="#FFFFFF" d="M245.749,197.638v10.772h13.541c0.145,0.433,0.217,0.967,0.217,1.601l-0.217,1.601h-9.432
				c-1.586,0-3.122-0.028-4.607-0.087c-1.485-0.057-2.574-0.114-3.266-0.173l-1.039-0.086v-29.592
				c2.365-0.23,5.336-0.347,8.912-0.347h9.215c0.145,0.433,0.217,0.967,0.217,1.602l-0.217,1.601h-13.324v9.907h11.94
				c0.144,0.433,0.216,0.966,0.216,1.601l-0.216,1.601H245.749z"/>
			<path fill="#FFFFFF" d="M277.677,211.481l-5.198-8.224l-5.229,8.3c-0.865,0.122-1.673,0.184-2.423,0.184l-2.336-0.26
				l7.139-10.902l-6.879-10.47c0.865-0.173,1.672-0.259,2.422-0.259l2.423,0.308l4.874,7.812l4.86-7.86
				c0.865-0.173,1.687-0.259,2.466-0.259l2.336-0.084l-6.963,10.803l7.309,11.232c-0.865-0.041-1.672-0.061-2.422-0.061
				L277.677,211.481z"/>
			<path fill="#FFFFFF" d="M291.001,190.109v1.558c0.173-0.144,0.433-0.324,0.778-0.54c0.347-0.217,1.096-0.505,2.25-0.865
				c1.153-0.36,2.351-0.541,3.591-0.541c2.277,0,3.922,0.599,4.932,1.795c1.01,1.197,1.514,2.979,1.514,5.343v7.874
				c0,2.365-0.591,4.146-1.773,5.343c-1.183,1.197-3.129,1.796-5.84,1.796c-2.51,0-4.326-0.562-5.451-1.688v9.95
				c-0.75,0.173-1.515,0.26-2.293,0.26l-2.293-0.26v-30.024c0.75-0.173,1.514-0.259,2.293-0.259L291.001,190.109z M299.479,204.732
				v-7.874c0-1.499-0.252-2.566-0.756-3.201c-0.506-0.634-1.406-0.951-2.705-0.951c-1.066,0-2.019,0.151-2.854,0.454
				c-0.837,0.303-1.413,0.599-1.73,0.887l-0.433,0.476v10.21c0,1.471,0.346,2.531,1.038,3.18c0.692,0.649,1.889,0.974,3.591,0.974
				c1.441,0,2.444-0.317,3.007-0.952C299.199,207.3,299.479,206.232,299.479,204.732z"/>
			<path fill="#FFFFFF" d="M316.007,208.886c0.402,0,0.764-0.043,1.081-0.13c0.144,0.404,0.216,0.852,0.216,1.341l-0.216,1.298
				c-0.952,0.317-1.847,0.477-2.683,0.477c-1.73,0-2.979-0.447-3.742-1.342c-0.764-0.894-1.146-2.234-1.146-4.023v-25.049
				c0.75-0.173,1.515-0.26,2.293-0.26l2.293,0.26v25.049c0,0.866,0.145,1.479,0.434,1.839
				C314.823,208.706,315.313,208.886,316.007,208.886z"/>
			<path fill="#FFFFFF" d="M321.284,204.732v-7.874c0-2.364,0.714-4.146,2.142-5.343c1.428-1.196,3.728-1.795,6.9-1.795
				s5.473,0.599,6.9,1.795c1.427,1.197,2.142,2.979,2.142,5.343v7.874c0,2.365-0.715,4.146-2.142,5.343
				c-1.428,1.197-3.728,1.796-6.9,1.796s-5.473-0.599-6.9-1.796C321.998,208.879,321.284,207.098,321.284,204.732z M325.87,196.858
				v7.874c0,1.471,0.331,2.531,0.995,3.18c0.663,0.649,1.817,0.974,3.461,0.974c1.614,0,2.754-0.324,3.417-0.974
				c0.664-0.648,0.996-1.709,0.996-3.18v-7.874c0-1.471-0.332-2.53-0.996-3.18c-0.663-0.648-1.803-0.973-3.417-0.973
				c-1.644,0-2.798,0.324-3.461,0.973C326.201,194.328,325.87,195.388,325.87,196.858z"/>
			<path fill="#FFFFFF" d="M349.404,190.109v2.38c0.058-0.087,0.151-0.188,0.281-0.303s0.425-0.331,0.888-0.649
				c0.461-0.316,0.951-0.598,1.471-0.843c0.519-0.245,1.196-0.469,2.033-0.671c0.836-0.201,1.701-0.303,2.596-0.303
				c0.144,0.462,0.217,0.98,0.217,1.558l-0.217,1.557c-0.924,0-1.811,0.138-2.66,0.411c-0.852,0.274-1.544,0.605-2.077,0.995
				c-0.534,0.39-1.003,0.772-1.406,1.146c-0.404,0.375-0.692,0.707-0.865,0.995l-0.26,0.39v14.709
				c-0.778,0.173-1.543,0.26-2.292,0.26l-2.293-0.26v-21.372c0.749-0.173,1.514-0.259,2.293-0.259L349.404,190.109z"/>
			<path fill="#FFFFFF" d="M361.259,204.732v-7.874c0-2.364,0.698-4.146,2.098-5.343c1.398-1.196,3.684-1.795,6.857-1.795
				c3.201,0,5.451,0.591,6.748,1.773c1.299,1.183,1.947,2.971,1.947,5.364v4.976c-1.557,0.317-3.735,0.476-6.532,0.476h-6.532v2.423
				c0,1.471,0.381,2.531,1.146,3.18c0.764,0.649,2.098,0.974,4.001,0.974c1.298,0,2.546-0.122,3.742-0.368
				c1.196-0.244,2.069-0.476,2.618-0.691c0.547-0.217,0.821-0.339,0.821-0.368v0.087c0.028,0.058,0.058,0.13,0.087,0.216
				c0.028,0.087,0.057,0.188,0.086,0.303c0.029,0.116,0.051,0.253,0.064,0.411c0.016,0.159,0.022,0.324,0.022,0.498
				c0,0.259-0.022,0.512-0.065,0.757s-0.079,0.426-0.107,0.541l-0.087,0.173c-1.73,0.951-4.124,1.428-7.182,1.428
				c-3.461,0-5.948-0.599-7.463-1.796C362.015,208.879,361.259,207.098,361.259,204.732z M365.845,199.325h8.695v-2.467
				c0-1.471-0.318-2.53-0.952-3.18c-0.635-0.648-1.759-0.973-3.374-0.973s-2.748,0.324-3.396,0.973
				c-0.648,0.649-0.973,1.709-0.973,3.18V199.325z"/>
			<path fill="#FFFFFF" d="M393.878,204.732v-7.874c0-2.364,0.698-4.146,2.098-5.343c1.398-1.196,3.684-1.795,6.857-1.795
				c3.201,0,5.451,0.591,6.748,1.773c1.299,1.183,1.947,2.971,1.947,5.364v4.976c-1.557,0.317-3.735,0.476-6.532,0.476h-6.532v2.423
				c0,1.471,0.381,2.531,1.146,3.18c0.764,0.649,2.098,0.974,4.001,0.974c1.298,0,2.546-0.122,3.742-0.368
				c1.196-0.244,2.069-0.476,2.618-0.691c0.547-0.217,0.821-0.339,0.821-0.368v0.087c0.028,0.058,0.058,0.13,0.087,0.216
				c0.028,0.087,0.057,0.188,0.086,0.303c0.029,0.116,0.051,0.253,0.064,0.411c0.016,0.159,0.022,0.324,0.022,0.498
				c0,0.259-0.022,0.512-0.065,0.757s-0.079,0.426-0.107,0.541l-0.087,0.173c-1.73,0.951-4.124,1.428-7.182,1.428
				c-3.461,0-5.948-0.599-7.463-1.796C394.634,208.879,393.878,207.098,393.878,204.732z M398.464,199.325h8.695v-2.467
				c0-1.471-0.318-2.53-0.952-3.18c-0.635-0.648-1.759-0.973-3.374-0.973s-2.748,0.324-3.396,0.973
				c-0.648,0.649-0.973,1.709-0.973,3.18V199.325z"/>
			<path fill="#FFFFFF" d="M421.349,195.846v0.873c0,0.698,0.323,1.2,0.971,1.506c0.646,0.306,1.631,0.603,2.953,0.894
				c0.928,0.189,1.686,0.345,2.275,0.466s1.346,0.339,2.271,0.654c0.924,0.316,1.654,0.661,2.189,1.034
				c0.534,0.374,1.012,0.883,1.431,1.529s0.628,1.357,0.628,2.133v0.862c0,2.039-0.685,3.562-2.055,4.566
				c-1.369,1.005-3.611,1.508-6.727,1.508c-3.201,0-5.445-0.548-6.728-1.645c-1.284-1.096-1.925-2.769-1.925-5.019v-0.259
				c0.721-0.174,1.455-0.26,2.206-0.26l2.249,0.26v0.259c0,1.327,0.311,2.279,0.931,2.855c0.62,0.577,1.709,0.865,3.267,0.865
				c1.527,0,2.602-0.251,3.223-0.754c0.62-0.503,0.93-1.302,0.93-2.395v-0.862c0-0.719-0.36-1.265-1.082-1.64
				c-0.723-0.374-1.748-0.676-3.075-0.905c-0.896-0.195-1.632-0.355-2.206-0.48c-0.574-0.126-1.309-0.347-2.202-0.664
				c-0.895-0.317-1.595-0.656-2.099-1.017s-0.959-0.844-1.362-1.449c-0.404-0.606-0.606-1.298-0.606-2.077v-0.865
				c0-2.019,0.672-3.54,2.012-4.564c1.342-1.023,3.526-1.535,6.555-1.535c3.115,0,5.285,0.548,6.512,1.644
				c1.225,1.097,1.838,2.769,1.838,5.019v0.303c-0.75,0.145-1.5,0.217-2.25,0.217l-2.205-0.217v-0.303
				c0-1.298-0.289-2.234-0.865-2.812c-0.578-0.577-1.588-0.865-3.029-0.865c-1.471,0-2.509,0.254-3.115,0.764
				C421.651,193.979,421.349,194.771,421.349,195.846z"/>
			<path fill="#FFFFFF" d="M451.026,192.965h-5.58v12.417c0,1.24,0.238,2.135,0.713,2.682c0.477,0.549,1.334,0.822,2.574,0.822
				c0.693,0,1.457-0.158,2.293-0.476c0.145,0.433,0.217,0.88,0.217,1.341l-0.217,1.385c-0.058,0-0.223,0.051-0.497,0.151
				c-0.274,0.102-0.556,0.188-0.844,0.26c-0.288,0.071-0.671,0.144-1.146,0.216c-0.476,0.071-0.944,0.108-1.405,0.108
				c-2.25,0-3.865-0.541-4.846-1.622c-0.98-1.082-1.471-2.704-1.471-4.867v-12.417h-2.121c-0.145-0.403-0.216-0.908-0.216-1.514
				l0.216-1.471h2.381l0.432-4.197c0.635-0.173,1.283-0.259,1.947-0.259l1.99,0.259v4.197h5.58c0.145,0.404,0.217,0.894,0.217,1.471
				L451.026,192.965z"/>
			<path fill="#FFFFFF" d="M456.478,204.732v-7.874c0-2.364,0.699-4.146,2.098-5.343c1.398-1.196,3.685-1.795,6.857-1.795
				c3.201,0,5.451,0.591,6.749,1.773s1.946,2.971,1.946,5.364v4.976c-1.557,0.317-3.734,0.476-6.531,0.476h-6.533v2.423
				c0,1.471,0.382,2.531,1.146,3.18c0.764,0.649,2.098,0.974,4.002,0.974c1.297,0,2.545-0.122,3.742-0.368
				c1.196-0.244,2.068-0.476,2.617-0.691c0.547-0.217,0.822-0.339,0.822-0.368v0.087c0.027,0.058,0.057,0.13,0.086,0.216
				c0.029,0.087,0.058,0.188,0.087,0.303c0.028,0.116,0.05,0.253,0.064,0.411c0.015,0.159,0.022,0.324,0.022,0.498
				c0,0.259-0.022,0.512-0.065,0.757c-0.044,0.245-0.079,0.426-0.108,0.541l-0.086,0.173c-1.73,0.951-4.125,1.428-7.182,1.428
				c-3.461,0-5.949-0.599-7.463-1.796C457.234,208.879,456.478,207.098,456.478,204.732z M461.063,199.325h8.695v-2.467
				c0-1.471-0.317-2.53-0.951-3.18c-0.635-0.648-1.76-0.973-3.375-0.973s-2.747,0.324-3.396,0.973
				c-0.648,0.649-0.973,1.709-0.973,3.18V199.325z"/>
			<path fill="#FFFFFF" d="M502.379,211.481v-1.558c-0.173,0.145-0.433,0.325-0.778,0.541c-0.347,0.217-1.098,0.505-2.25,0.865
				c-1.154,0.36-2.365,0.541-3.635,0.541c-2.307,0-3.965-0.599-4.975-1.796c-1.01-1.196-1.514-2.978-1.514-5.343v-14.623
				c0.749-0.173,1.514-0.259,2.293-0.259l2.292,0.259v14.623c0,1.5,0.26,2.567,0.778,3.201c0.52,0.635,1.428,0.952,2.727,0.952
				c1.066,0,2.025-0.151,2.877-0.454c0.85-0.303,1.434-0.599,1.752-0.887l0.433-0.477v-16.959c0.778-0.173,1.542-0.259,2.293-0.259
				l2.336,0.259v21.372c-0.778,0.173-1.558,0.26-2.336,0.26L502.379,211.481z"/>
			<path fill="#FFFFFF" d="M517.044,190.109v1.558c0.174-0.144,0.439-0.324,0.801-0.54c0.36-0.217,1.125-0.505,2.293-0.865
				s2.386-0.541,3.655-0.541c2.308,0,3.973,0.599,4.997,1.795c1.023,1.197,1.535,2.979,1.535,5.343v14.623
				c-0.75,0.173-1.514,0.26-2.293,0.26l-2.336-0.26v-14.623c0-1.499-0.26-2.566-0.778-3.201c-0.519-0.634-1.428-0.951-2.726-0.951
				c-1.096,0-2.076,0.151-2.941,0.454s-1.457,0.599-1.773,0.887l-0.434,0.476v16.959c-0.778,0.173-1.543,0.26-2.293,0.26
				l-2.293-0.26v-21.372c0.75-0.173,1.515-0.259,2.293-0.259L517.044,190.109z"/>
			<path fill="#FFFFFF" d="M540.362,181.457v4.803c-0.779,0.145-1.543,0.216-2.293,0.216l-2.293-0.216v-4.803
				c0.75-0.173,1.514-0.26,2.293-0.26L540.362,181.457z M540.362,190.109v21.372c-0.779,0.173-1.543,0.26-2.293,0.26l-2.293-0.26
				v-21.372c0.75-0.173,1.514-0.259,2.293-0.259L540.362,190.109z"/>
			<path fill="#FFFFFF" d="M551.438,211.481l-7.14-21.372c0.75-0.173,1.485-0.259,2.207-0.259l2.336,0.477l5.587,17.686
				l5.661-17.903c0.807-0.173,1.586-0.259,2.336-0.259l2.207-0.642l-7.41,22.182c-0.881,0.233-1.832,0.351-2.851,0.351
				L551.438,211.481z"/>
			<path fill="#FFFFFF" d="M568.438,204.732v-7.874c0-2.364,0.699-4.146,2.1-5.343c1.398-1.196,3.684-1.795,6.855-1.795
				c3.201,0,5.451,0.591,6.75,1.773c1.297,1.183,1.947,2.971,1.947,5.364v4.976c-1.559,0.317-3.736,0.476-6.533,0.476h-6.533v2.423
				c0,1.471,0.383,2.531,1.146,3.18c0.764,0.649,2.098,0.974,4.002,0.974c1.299,0,2.545-0.122,3.742-0.368
				c1.197-0.244,2.068-0.476,2.617-0.691c0.549-0.217,0.822-0.339,0.822-0.368v0.087c0.029,0.058,0.057,0.13,0.086,0.216
				c0.029,0.087,0.059,0.188,0.088,0.303c0.027,0.116,0.049,0.253,0.064,0.411c0.014,0.159,0.021,0.324,0.021,0.498
				c0,0.259-0.021,0.512-0.064,0.757s-0.08,0.426-0.109,0.541l-0.086,0.173c-1.73,0.951-4.125,1.428-7.182,1.428
				c-3.461,0-5.949-0.599-7.463-1.796C569.196,208.879,568.438,207.098,568.438,204.732z M573.024,199.325h8.695v-2.467
				c0-1.471-0.316-2.53-0.951-3.18c-0.635-0.648-1.76-0.973-3.375-0.973s-2.746,0.324-3.395,0.973
				c-0.65,0.649-0.975,1.709-0.975,3.18V199.325z"/>
			<path fill="#FFFFFF" d="M596.126,190.109v2.38c0.059-0.087,0.152-0.188,0.281-0.303c0.131-0.115,0.426-0.331,0.887-0.649
				c0.461-0.316,0.951-0.598,1.471-0.843s1.197-0.469,2.033-0.671c0.836-0.201,1.703-0.303,2.596-0.303
				c0.145,0.462,0.217,0.98,0.217,1.558l-0.217,1.557c-0.922,0-1.809,0.138-2.66,0.411c-0.852,0.274-1.543,0.605-2.076,0.995
				s-1.002,0.772-1.406,1.146c-0.404,0.375-0.691,0.707-0.865,0.995l-0.26,0.39v14.709c-0.779,0.173-1.543,0.26-2.293,0.26
				l-2.293-0.26v-21.372c0.75-0.173,1.514-0.259,2.293-0.259L596.126,190.109z"/>
			<path fill="#FFFFFF" d="M612.479,195.846v0.873c0,0.698,0.322,1.2,0.971,1.506c0.646,0.306,1.631,0.603,2.953,0.894
				c0.926,0.189,1.686,0.345,2.275,0.466c0.588,0.121,1.346,0.339,2.271,0.654c0.924,0.316,1.654,0.661,2.189,1.034
				c0.533,0.374,1.012,0.883,1.43,1.529c0.42,0.646,0.629,1.357,0.629,2.133v0.862c0,2.039-0.686,3.562-2.055,4.566
				c-1.371,1.005-3.613,1.508-6.727,1.508c-3.203,0-5.445-0.548-6.729-1.645c-1.283-1.096-1.926-2.769-1.926-5.019v-0.259
				c0.721-0.174,1.457-0.26,2.207-0.26l2.25,0.26v0.259c0,1.327,0.309,2.279,0.93,2.855c0.621,0.577,1.709,0.865,3.268,0.865
				c1.527,0,2.602-0.251,3.223-0.754c0.619-0.503,0.93-1.302,0.93-2.395v-0.862c0-0.719-0.361-1.265-1.082-1.64
				c-0.723-0.374-1.748-0.676-3.076-0.905c-0.896-0.195-1.631-0.355-2.205-0.48c-0.574-0.126-1.309-0.347-2.203-0.664
				s-1.594-0.656-2.098-1.017c-0.506-0.36-0.959-0.844-1.363-1.449c-0.404-0.606-0.605-1.298-0.605-2.077v-0.865
				c0-2.019,0.67-3.54,2.012-4.564c1.342-1.023,3.525-1.535,6.555-1.535c3.115,0,5.285,0.548,6.51,1.644
				c1.227,1.097,1.84,2.769,1.84,5.019v0.303c-0.75,0.145-1.5,0.217-2.25,0.217l-2.207-0.217v-0.303
				c0-1.298-0.287-2.234-0.865-2.812c-0.576-0.577-1.586-0.865-3.027-0.865c-1.471,0-2.51,0.254-3.115,0.764
				C612.782,193.979,612.479,194.771,612.479,195.846z"/>
			<path fill="#FFFFFF" d="M630.433,204.732v-7.874c0-2.364,0.715-4.146,2.143-5.343c1.428-1.196,3.727-1.795,6.9-1.795
				c3.172,0,5.473,0.599,6.9,1.795c1.428,1.197,2.141,2.979,2.141,5.343v7.874c0,2.365-0.713,4.146-2.141,5.343
				c-1.428,1.197-3.729,1.796-6.9,1.796c-3.174,0-5.473-0.599-6.9-1.796C631.147,208.879,630.433,207.098,630.433,204.732z
				 M635.019,196.858v7.874c0,1.471,0.332,2.531,0.996,3.18c0.662,0.649,1.816,0.974,3.461,0.974c1.613,0,2.754-0.324,3.418-0.974
				c0.662-0.648,0.994-1.709,0.994-3.18v-7.874c0-1.471-0.332-2.53-0.994-3.18c-0.664-0.648-1.805-0.973-3.418-0.973
				c-1.645,0-2.799,0.324-3.461,0.973C635.351,194.328,635.019,195.388,635.019,196.858z"/>
		</g>
	</g>
</g>
<g id="satelite">
</g>
<g id="cabelo">
</g>
<g id="texto">
</g>
<g id="texto_em_cima_planeta">
</g>
<g id="margens">
</g>
<g id="anotacoes">
</g>
<g id="Camada_18">
</g>
</svg>
