<svg viewBox="0 0 16 16"><path fill="#A3A3A3" d="M7.461,7.141C7.599,6.962,7.769,6.79,7.966,6.624c0.197-0.167,0.394-0.347,0.587-0.546
c0.198-0.199,0.364-0.459,0.502-0.783c0.138-0.322,0.208-0.685,0.208-1.089c0-0.505-0.109-0.952-0.321-1.346
C8.724,2.467,8.408,2.093,7.992,1.74h1.109L10.271,1H6.728C6.095,1,5.48,1.089,4.884,1.269C4.289,1.45,3.773,1.723,3.337,2.093
C2.982,2.397,2.7,2.764,2.497,3.195C2.293,3.627,2.191,4.074,2.191,4.534c0,0.829,0.289,1.516,0.86,2.058
c0.574,0.54,1.279,0.81,2.117,0.81c0.124,0,0.315-0.009,0.574-0.032C5.625,7.644,5.566,7.882,5.566,8.083
c0,0.23,0.043,0.436,0.132,0.614c0.087,0.18,0.223,0.388,0.402,0.623c-1.543,0.101-2.686,0.382-3.424,0.842
c-0.42,0.257-0.754,0.58-1.005,0.967c-0.252,0.387-0.377,0.808-0.377,1.262c0,0.399,0.102,0.766,0.312,1.104
c0.321,0.539,0.807,0.923,1.453,1.156C3.708,14.883,4.404,15,5.152,15c0.897,0,1.74-0.162,2.524-0.484
c0.785-0.323,1.383-0.826,1.789-1.51c0.272-0.467,0.407-0.951,0.407-1.456c0-0.438-0.091-0.836-0.272-1.194
C9.42,9.997,9.204,9.705,8.947,9.481C8.694,9.256,8.438,9.05,8.181,8.863C7.924,8.675,7.706,8.484,7.525,8.29
c-0.18-0.193-0.271-0.391-0.271-0.592C7.254,7.506,7.323,7.322,7.461,7.141L7.461,7.141z M5.198,6.671
C4.945,6.525,4.735,6.337,4.562,6.107c-0.172-0.23-0.319-0.488-0.44-0.778C4,5.041,3.911,4.751,3.853,4.461
C3.797,4.173,3.771,3.9,3.771,3.641c0-0.565,0.131-1.015,0.397-1.345C4.309,2.11,4.493,1.963,4.722,1.854
c0.23-0.109,0.463-0.164,0.7-0.164c0.36,0,0.692,0.115,0.992,0.345c0.301,0.23,0.538,0.521,0.718,0.871
C7.31,3.256,7.448,3.62,7.542,3.995c0.095,0.377,0.145,0.727,0.145,1.052c0,0.573-0.15,1.019-0.45,1.338
C7.09,6.537,6.902,6.658,6.676,6.75c-0.224,0.092-0.446,0.14-0.66,0.14C5.72,6.89,5.447,6.817,5.198,6.671L5.198,6.671z
 M4.952,14.112c-0.354-0.082-0.689-0.204-1.008-0.37c-0.322-0.164-0.578-0.397-0.778-0.698c-0.196-0.3-0.295-0.646-0.295-1.039
c0-0.332,0.075-0.628,0.229-0.888c0.151-0.26,0.345-0.47,0.581-0.627c0.233-0.156,0.505-0.286,0.821-0.386
c0.314-0.102,0.617-0.172,0.912-0.211c0.292-0.039,0.591-0.059,0.89-0.059c0.18,0,0.316,0.006,0.406,0.016
c0.017,0.011,0.119,0.084,0.31,0.219c0.189,0.134,0.305,0.219,0.351,0.253c0.046,0.033,0.148,0.113,0.309,0.242
c0.162,0.13,0.273,0.226,0.328,0.292c0.056,0.063,0.138,0.162,0.249,0.294c0.113,0.132,0.188,0.248,0.231,0.35
c0.043,0.101,0.082,0.218,0.12,0.354c0.04,0.134,0.06,0.272,0.06,0.412c0,0.348-0.075,0.653-0.232,0.917
c-0.154,0.264-0.361,0.469-0.617,0.614c-0.26,0.145-0.54,0.255-0.841,0.328c-0.302,0.073-0.617,0.11-0.945,0.11
C5.664,14.234,5.303,14.193,4.952,14.112L4.952,14.112z M12.899,5.038h-0.89v1.826h-1.799v0.909h1.799v1.843h0.89V7.773h1.806
V6.864h-1.806V5.038L12.899,5.038z"/></svg>


