<?xml version="1.0" encoding="utf-8"?>
<!-- Generator: Adobe Illustrator 16.0.0, SVG Export Plug-In . SVG Version: 6.00 Build 0)  -->
<!DOCTYPE svg PUBLIC "-//W3C//DTD SVG 1.1//EN" "http://www.w3.org/Graphics/SVG/1.1/DTD/svg11.dtd">
<svg version="1.1" xmlns="http://www.w3.org/2000/svg" xmlns:xlink="http://www.w3.org/1999/xlink" x="0px" y="0px" width="16px"
	 height="16px" viewBox="0 0 16 16" enable-background="new 0 0 16 16" xml:space="preserve">
<g id="PRINCIPAL">
</g>
<g id="CLIQUE">
</g>
<g id="MATERIAL">
	<path fill="#A3A3A3" d="M13.065,4.315c0.589-0.355,0.987-0.854,1.196-1.499c-0.541,0.319-1.115,0.538-1.727,0.658
		c-0.538-0.573-1.199-0.86-1.984-0.86c-0.753,0-1.391,0.264-1.922,0.795C8.096,3.94,7.833,4.582,7.833,5.332
		c0,0.203,0.022,0.411,0.068,0.622C6.79,5.899,5.747,5.619,4.773,5.117C3.799,4.614,2.975,3.947,2.297,3.11
		C2.049,3.533,1.925,3.989,1.925,4.481c0,0.465,0.111,0.898,0.33,1.297c0.218,0.397,0.511,0.72,0.882,0.967
		C2.701,6.729,2.29,6.615,1.909,6.4v0.032c0,0.658,0.205,1.235,0.619,1.73c0.41,0.498,0.932,0.811,1.561,0.938
		C3.851,9.163,3.613,9.195,3.372,9.195c-0.157,0-0.329-0.016-0.512-0.042c0.173,0.544,0.492,0.991,0.958,1.339
		c0.466,0.352,0.994,0.534,1.583,0.544c-0.987,0.775-2.115,1.159-3.375,1.159c-0.241,0-0.459-0.009-0.655-0.032
		c1.261,0.814,2.652,1.222,4.17,1.222c0.968,0,1.874-0.154,2.72-0.459c0.844-0.306,1.57-0.717,2.17-1.228
		c0.6-0.515,1.118-1.105,1.551-1.773c0.437-0.667,0.759-1.365,0.971-2.092c0.215-0.723,0.323-1.453,0.323-2.183
		c0-0.156-0.003-0.273-0.01-0.352c0.534-0.388,0.987-0.857,1.361-1.404C14.107,4.12,13.586,4.26,13.065,4.315L13.065,4.315
		L13.065,4.315z"/>
</g>
<g id="REFERENCIAS">
</g>
<g id="MENU">
</g>
<g id="HOVER">
</g>
<g id="MODAL" display="none">
</g>
<g id="LOADING">
</g>
</svg>
