<?xml version="1.0" encoding="utf-8"?>
<!-- Generator: Adobe Illustrator 16.0.0, SVG Export Plug-In . SVG Version: 6.00 Build 0)  -->
<!DOCTYPE svg PUBLIC "-//W3C//DTD SVG 1.1//EN" "http://www.w3.org/Graphics/SVG/1.1/DTD/svg11.dtd">
<svg version="1.1" id="Layer_1" xmlns="http://www.w3.org/2000/svg" xmlns:xlink="http://www.w3.org/1999/xlink" x="0px" y="0px"
	 width="1510px" height="208.928px" viewBox="-1159.385 0 1510 208.928" enable-background="new -1159.385 0 1510 208.928"
	 xml:space="preserve">
<path fill="none" stroke="#FFFFFF" stroke-width="2" stroke-miterlimit="10" d="M243.768,81.292c0,0-12.046,118.562-237,89.917
	c-73.538-9.364-160-67-257-12s32,50.359,41.462,24.636c13.776-37.457-113.018-76.126-232-62.567
	c-102.631,11.695-432.129,23.688-718.615,35.687"/>
<g id="azul">
</g>
<g id="sem_textura">
</g>
<g id="degrades">
</g>
<g id="cometa">
</g>
<g id="_x30_1">
</g>
<g id="_x30_1azul">
</g>
<g id="fundao">
</g>
<g id="atras_planeta">
</g>
<g id="planeta">
</g>
<g id="Camada_19">
</g>
<g id="crateras">
</g>
<g id="Camada_6">
</g>
<g id="aneis">
</g>
<g id="menina_face">
</g>
<g id="img_apagar" display="none">
</g>
<g id="texto_e_menina">
</g>
<g id="satelite">
</g>
<g id="cabelo">
</g>
<g id="texto">
</g>
<g id="texto_em_cima_planeta">
</g>
<g id="cometinhas">
</g>
<g id="margens">
</g>
<g id="anotacoes">
</g>
<g id="Camada_18">
	<g>
		<g>
			<g>
				<circle fill="#33C4C4" cx="320.429" cy="29.031" r="28.032"/>
				<circle fill="#FFFFFF" cx="318.982" cy="30.708" r="26.466"/>
			</g>
			<g>
				<g>
					<circle fill="#FFA900" cx="320.809" cy="32.185" r="16.957"/>
					<path fill="#FFA900" d="M330.908,20.623c0,0,7.03,3.5,10.702,2.476c1.829,0.024-7.788,12.623-7.788,12.623L330.908,20.623z"/>
					<polygon fill="#E5960A" points="310.344,55.913 324.677,45.613 318.912,37.592 303.697,49.549 					"/>
				</g>
				<path fill="#5E4790" d="M327.327,40.111c0,0-1.145,1.953-2.579,2.112c-1.434,0.159-2.629,0.248-3.938-1.93
					c-3.671-6.103,15.328-15.448,5.654-21.997c2.228,0.562,10.296-0.604,10.296-5.645c-4.853,3.426-8.778-6.344-13.013-3.365
					c-3.97,2.793-4.675-0.773-6.761-1.558s-4.473-0.782-6.657,2.821c-2.184,3.603-11.343,6.155-9.842,9.308
					c1.501,3.153-4.062,4.056-4.134,8.073c-0.072,4.021,3.833,3.788,2.182,5.89c-1.652,2.104-0.169,8.752,4.108,9.107
					c2.232,0.186,2.583,0.402,3.174,2.495s4.511,5.433,7.146,3.721c3.399-2.211,7.846,4.852,13.258-0.355
					C330.179,44.982,327.327,40.111,327.327,40.111z"/>
			</g>
		</g>
		<g>
			<path fill="#E4E4E4" d="M313.022,57.221l-12.477-8.084l-8.036-5.964l-51.283-7.126c0,0-66.866-2.916-74.245-2.916
				s-1.846,4.671,3.533,5.392c5.378,0.723,61.713,8.272,61.713,8.272l17.194,12.606L163.194,89.82L40.074,74.29l-3.496-3.329
				c0,0-12.313-0.822-15.202-1.114c-2.887-0.292-7.679,1.871-5.85,2.917s7.647,4.892,21.746,8.515l0.636,0.125
				c0,0,2.38,0.506,2.493,0.529l0.214-0.09c18.416,3.847,112.462,23.428,120.837,23.879c9.288,0.5,29.271-1.869,47.229-8.443
				c-2.392,2.8-51.157,18.062-51.157,18.062s-97.905-2.062-130.416-1.343l-7.697-2.742c0,0-11.919,1.743-14.169,2.188
				c-2.25,0.446-5.474,3.952-3.757,4.451s7.979,2.733,22.176,3.104l0,0c11.225,0.501,126.556,7.899,133.634,8.428
				c7.438,0.554,63.731-7.165,116.696-29.302c18.893-7.896,35.321-18.902,40.411-23.236
				C319.49,72.555,313.022,57.221,313.022,57.221z"/>
			<g>
				
					<rect x="289.377" y="49.087" transform="matrix(0.7941 0.6078 -0.6078 0.7941 93.3309 -173.8869)" fill="#33C4C4" width="27.864" height="3.438"/>
				
					<rect x="288.21" y="51.27" transform="matrix(0.7941 0.6078 -0.6078 0.7941 94.017 -172.8634)" fill="#268E88" width="27.864" height="2.12"/>
			</g>
			<g>
				<g>
					<path fill="#268E88" d="M206.426,98.845c-17.959,6.574-35.896,7.467-45.185,6.967S37.273,81.278,37.273,81.278
						s-4.032-0.951-10.166-3.156c5.57,0.393,8.239,1.006,8.239,1.006s90.064,17.564,127.32,22.141
						c24.742,3.038,53.073-5.795,53.073-5.795"/>
				</g>
			</g>
			<g>
				<g>
					<path fill="#268E88" d="M314.401,77.127c-5.089,4.333-21.519,15.339-40.411,23.234
						c-52.965,22.139-109.258,29.855-116.696,29.304c-7.438-0.556-133.968-8.684-133.968-8.684s-8.482-0.303-12.544-1.071
						c-0.612-0.116,7.963-1.582,11.875-1.355s95.383,6.959,136.233,7.313c41.834,0,131.575-31.557,152.481-48.407"/>
				</g>
			</g>
			<line fill="none" x1="293.791" y1="50.531" x2="276.657" y2="50.531"/>
			<g>
				<path fill="#FFA900" d="M294.338,47.977c2.07,5.619-0.807,11.854-6.426,13.922l-42.565,29.28
					c-5.619,2.07-20.027-11.392-22.099-17.011l-1.25-3.394c-2.068-5.619,0.809-11.852,6.426-13.922l50.741-18.692
					c5.619-2.07,11.854,0.807,13.922,6.426L294.338,47.977z"/>
				<polyline fill="#FFA100" points="285.254,51.219 288.888,39.291 302.204,51.219 				"/>
				<g>
					<g>
						<g>
							<defs>
								<path id="SVGID_1_" d="M301.84,51.729c2.07,5.619-8.309,8.102-13.927,10.17L243.786,89.99
									c-5.619,2.07-18.467-10.201-20.537-15.82l-1.25-3.394c-2.068-5.619,0.809-11.852,6.426-13.922l50.741-18.692
									c2.403-0.887,11.181,2.437,11.181,2.437l7.639,6.843L301.84,51.729z"/>
							</defs>
							<clipPath id="SVGID_2_">
								<use xlink:href="#SVGID_1_"  overflow="visible"/>
							</clipPath>
							<path clip-path="url(#SVGID_2_)" fill="#D57219" d="M300.873,52.682c2.07,5.619-0.872,11.876-6.571,13.978L242.834,85.62
								c-5.699,2.1-11.998-0.753-14.066-6.372l-1.25-3.394c-2.07-5.619,0.872-11.876,6.569-13.976l51.47-18.962
								c5.697-2.102,11.998,0.753,14.066,6.372L300.873,52.682z"/>
						</g>
					</g>
					<g>
						<g>
							<defs>
								<path id="SVGID_3_" d="M301.84,51.729c2.07,5.619-8.309,8.102-13.927,10.17L243.786,89.99
									c-5.619,2.07-18.467-10.201-20.537-15.82l-1.25-3.394c-2.068-5.619,0.809-11.852,6.426-13.922l50.741-18.692
									c2.403-0.887,11.181,2.437,11.181,2.437l7.639,6.843L301.84,51.729z"/>
							</defs>
							<clipPath id="SVGID_4_">
								<use xlink:href="#SVGID_3_"  overflow="visible"/>
							</clipPath>
							<path clip-path="url(#SVGID_4_)" fill="#D44949" d="M289.86,45.455c5.847-2.154,12.266,0.652,14.336,6.271l1.25,3.394
								c2.07,5.617-0.992,11.92-6.839,14.072l-52.805,19.454c-5.848,2.154-12.267-0.652-14.337-6.271l-1.25-3.394
								c-2.068-5.619,0.992-11.92,6.841-14.072"/>
						</g>
					</g>
				</g>
				<path fill="#FFA900" d="M305.412,57.928c2.07,5.619-0.807,11.852-6.426,13.922l-50.741,18.694
					c-5.619,2.068-11.852-0.809-13.922-6.426l-1.25-3.394c-2.07-5.619,0.807-11.852,6.426-13.922L290.24,48.11
					c5.619-2.068,11.852,0.809,13.922,6.428L305.412,57.928z"/>
			</g>
			<g>
				<path fill="#FFFFFF" d="M294.114,71.493c0,0-80.441,12.317-88.032,13.586c-7.591,1.267-8.592,9.887,0.672,9.192
					c9.266-0.691,85.197-6.376,94.786-7.071c9.591-0.697,16.512-9.674,13.369-16.115C311.768,64.641,294.114,71.493,294.114,71.493z
					"/>
				<path fill="#33C4C4" d="M293.535,80.848c-20.083,2.267-92.81,11.559-92.81,11.559s0.979,2.228,6.027,1.866
					c5.052-0.358,61.355-4.351,91.87-6.922c8.681,0.403,16.245-4.492,16.99-11.891C312.865,75.052,313.618,78.58,293.535,80.848z"/>
			</g>
		</g>
	</g>
</g>
</svg>
