<?xml version="1.0" encoding="utf-8"?>
<!-- Generator: Adobe Illustrator 16.0.0, SVG Export Plug-In . SVG Version: 6.00 Build 0)  -->
<!DOCTYPE svg PUBLIC "-//W3C//DTD SVG 1.1//EN" "http://www.w3.org/Graphics/SVG/1.1/DTD/svg11.dtd">
<svg version="1.1" id="Camada_1" xmlns="http://www.w3.org/2000/svg" xmlns:xlink="http://www.w3.org/1999/xlink" x="0px" y="0px"
	 width="683.182px" height="751.65px" viewBox="0 0 683.182 751.65" enable-background="new 0 0 683.182 751.65"
	 xml:space="preserve">
<g id="azul">
</g>
<g id="sem_textura">
</g>
<g id="degrades">
</g>
<g id="cometa">
</g>
<g id="_x30_1">
</g>
<g id="_x30_1azul">
</g>
<g id="fundao">
</g>
<g id="atras_planeta">
</g>
<g id="planeta">
</g>
<g id="Camada_19">
</g>
<g id="crateras">
</g>
<g id="Camada_6">
</g>
<g id="aneis">
</g>
<g id="menina_face">
</g>
<g id="img_apagar" display="none">
</g>
<g id="texto_e_menina">
</g>
<g id="satelite">
</g>
<g id="cabelo">
</g>
<g id="texto">
</g>
<g id="texto_em_cima_planeta">
</g>
<g id="cometinhas">
</g>
<g id="margens">
</g>
<g id="anotacoes">
</g>
<g id="Camada_18">
	<g>
		<path fill="#FFA900" d="M356.446,131.729c0,0-45.091-57.753-34.562-56.021c26.98,4.438,52.181-16.478,52.181-16.478
			L356.446,131.729z"/>
		<g>
			<g>
				<g>
					<g>
						<g>
							<g>
								<defs>
									<rect id="SVGID_1_" x="1.408" y="-66.506" width="708.773" height="818.156"/>
								</defs>
								<clipPath id="SVGID_2_">
									<use xlink:href="#SVGID_1_"  overflow="visible"/>
								</clipPath>
								<g clip-path="url(#SVGID_2_)">
									<g>
										<g>
											<path fill="#33CBCB" d="M13.09,516.525c5.488,79.593,74.459,139.668,154.052,134.18c1.348-0.092,2.678-0.251,4.016-0.379
												c-73.427,2.917-136.326-53.062-141.413-126.86C24.563,448.319,81.283,383.2,156.429,378.019
												c73.798-5.087,137.881,49.535,145.066,122.668c-0.055-1.344-0.082-2.683-0.176-4.033
												c-5.486-79.591-74.457-139.666-154.049-134.178C67.678,367.962,7.604,436.934,13.09,516.525z"/>
											<circle fill="#FFFFFF" cx="165.81" cy="514.085" r="136.388"/>
											
												<ellipse transform="matrix(-0.5699 -0.8217 0.8217 -0.5699 -141.7115 1128.4878)" opacity="0.2" fill="#0D254B" enable-background="new    " cx="224.474" cy="601.33" rx="24.108" ry="69.973"/>
										</g>
										<path fill="#E79306" d="M36.885,539.858c0,0-20.681,25.432-24.214,16.192c-11.301-29.543,8.678-45.086,8.678-45.086"/>
										<g>
											<path fill="#E4E4E4" d="M20.351,511.764c0,0-0.158,46.661,16.631,28.3C53.772,521.703,157.26,425.54,157.26,425.54
												l139.16-26.315l-13.194,906.759c-6.839,8.857-30.693,40.754-19.873,41.241c12.564,0.564,52.288-31.646,52.288-31.646
												l-0.028-0.011h0.159L424.923,671.12l17.964,8.004l113.688,639.892l-0.08,0.039c0,0,0.085,0.069,0.102,0.082l0.07,0.394
												l0.455,0.026c4.939,3.955,39.99,31.666,51.661,31.141c12.566-0.563-23.563-45.211-23.563-45.211L565.26,567.414
												c40.891-22.862,65.479-39.981,92.511-57.458c24.933-16.118,20.107-36.963,13.971-49.751
												c-15.444-32.192-144.512-216.526-175.957-216.526c0,0-95.77,0-122.687,0s-214.33,113.511-238.999,131.46
												C94.153,404.201,20.351,511.764,20.351,511.764z M561.058,421.579l52.322,61.172l-49.544,40.476L561.058,421.579z"/>
											<g>
												<g>
													<polygon fill="#33CBCB" points="556.665,1319.53 569.709,1329.202 571.197,1310.635 459.119,686.182 442.885,679.126 
																											"/>
													<polygon fill="#33CBCB" points="634.487,483.954 564.632,538.397 563.816,523.131 613.381,482.749 561.058,430.541 
														561.058,405.881 													"/>
												</g>
												<polygon fill="#33CBCB" points="283.294,1306.316 274.154,1318.31 300.115,1307.058 312.546,395.843 294.744,399.582 
																									"/>
											</g>
											<g>
												<g>
													<g>
														<g>
															<circle fill="#FFA900" cx="419.316" cy="124.812" r="79.497"/>
															<polygon fill="#FFA900" points="455.173,239.958 444.372,149.881 402.302,182.138 412.045,239.023 															
																"/>
															<path fill="#DA8409" d="M429.173,224.095c12.831-4.966,23.313-5.645,23.313-5.645l-4.13-42.138l-45.287,7.891
																l6.853,41.854C409.922,226.058,416.342,229.061,429.173,224.095z"/>
														</g>
														<path fill="#5E4798" d="M385.75,202.656c25.376,24.411,54.405-8.694,70.349,1.674
															c12.346,8.028,30.721-7.632,33.493-17.443c2.771-9.812,4.408-10.826,14.882-11.698
															c20.051-1.668,27.003-32.843,19.26-42.697c-7.743-9.854,10.566-8.768,10.229-27.611
															c-0.337-18.843-26.419-23.067-19.38-37.85c7.039-14.781-35.898-26.747-46.14-43.639
															C458.202,6.499,447.01,6.496,437.232,10.166c-9.776,3.67-13.083,20.39-31.695,7.295
															C385.693,3.5,359.09,49.297,336.348,33.244c0,23.629,37.823,29.088,48.271,26.455
															c-55.886,54.142,43.715,74.523,26.506,103.124c-6.145,10.212-23.692,9.991-30.56-0.852
															C376.064,167.297,367.196,184.809,385.75,202.656z"/>
													</g>
												</g>
												<g>
													<rect x="349.603" y="232.142" fill="#33CBCB" width="162.607" height="14.331"/>
													<rect x="349.603" y="242.89" fill="#268E88" width="162.607" height="8.837"/>
													<polygon opacity="0.3" fill="#838383" enable-background="new    " points="348.3,251.791 512.211,251.728 
														518.65,256.684 336.956,256.684 													"/>
												</g>
											</g>
										</g>
										<path opacity="0.3" fill="#838383" enable-background="new    " d="M38.791,538.188c-0.943,0.966-1.734,1.802-2.428,2.523
											c-2.945,3.062-7.18,10.219,8.392-1.216c3.042-2.232,115.1-106.261,115.1-106.261l108.12-28.632
											c0,0-103.83,19.683-110.715,20.937C97.318,480.928,57.927,518.745,38.791,538.188z"/>
										<polygon opacity="0.3" fill="#838383" enable-background="new    " points="292.744,563.856 287.605,574.529 
											287.605,445.588 293.93,456.656 										"/>
									</g>
									<g>
										<path fill="#D57219" d="M573.886,318.742l-19.882,12.846l27.412,39.178c0,0,17.621-8.77,22.917-11.809
											C590.055,338.342,573.886,318.742,573.886,318.742z"/>
										<polyline fill="#D57219" points="615.302,374.076 593.802,387.384 588.298,378.828 609.678,366.614 										"/>
									</g>
								</g>
							</g>
						</g>
					</g>
				</g>
			</g>
		</g>
		<g>
			<g>
				<g>
					<path fill="none" stroke="#CBCBCB" stroke-miterlimit="10" d="M312.532,396.867c0,0,34.617-7.08,49.573-44.556
						c13.691-34.309,15.087-100.531,15.087-100.531"/>
				</g>
			</g>
			<g>
				<g>
					<path fill="none" stroke="#CBCBCB" stroke-miterlimit="10" d="M561.059,406.428c0,0-50.662-6.705-66.694-46.88
						c-14.677-36.777-16.173-107.769-16.173-107.769"/>
				</g>
			</g>
			<g>
				<path fill="none" stroke="#CBCBCB" stroke-linecap="round" stroke-miterlimit="10" d="M248.015,306.108
					c0,0,12.805,16.301,19.906,41.059c7.783,27.136,0,56.787,0,56.787"/>
				<path fill="none" stroke="#CBCBCB" stroke-linecap="round" stroke-miterlimit="10" d="M224.862,319.779
					c0,0,11.086,15.284,18.57,38.512c8.84,27.438,0,50.275,0,50.275"/>
			</g>
			<g>
				<path fill="none" stroke="#CBCBCB" stroke-linecap="round" stroke-miterlimit="10" d="M622.651,385.728
					c0,0-15.344,4.08-30.509,15.755c-7.774,5.985-13.239,12.841-17.119,18.505"/>
				<path fill="none" stroke="#CBCBCB" stroke-linecap="round" stroke-miterlimit="10" d="M634.098,402.51
					c0,0-17.772,5.455-32.212,16.424c-6.975,5.298-11.466,9.739-14.779,13.903"/>
			</g>
			<path fill="none" stroke="#CBCBCB" stroke-linecap="round" stroke-miterlimit="10" d="M312.079,484.574
				c21.406-2.577,62.539-6.343,124.502-6.343c94.201,0,125.78,8.581,125.78,8.581"/>
			<path fill="none" stroke="#CBCBCB" stroke-linecap="round" stroke-miterlimit="10" d="M311.811,504.248
				c21.323-2.577,62.548-6.375,124.771-6.375c94.201,0,126.264,8.703,126.264,8.703"/>
			<path fill="none" stroke="#CBCBCB" stroke-miterlimit="10" d="M566.715,624.142c-30.112,57.34-107.596,62.04-107.596,62.04"/>
			<path fill="none" stroke="#CBCBCB" stroke-linecap="round" stroke-miterlimit="10" d="M310.29,594.429
				c10.891,50.271,114.023,76.571,114.023,76.571"/>
		</g>
	</g>
</g>
<g>
	<g>
		<defs>
			<path id="SVGID_3_" d="M36.982,540.064C53.772,521.703,157.26,425.54,157.26,425.54l139.16-26.315v0.006l-1.676,0.353
				l-10.966,868.369l-0.553,38.031c-6.839,8.857-30.693,40.754-19.873,41.241c12.564,0.564,52.288-31.646,52.288-31.646
				l-0.028-0.011h0.159L424.923,671.12l17.964,8.004l113.688,639.892l-0.08,0.039c0,0,0.086,0.069,0.102,0.082l0.07,0.394
				l0.456,0.026c4.938,3.955,39.989,31.666,51.66,31.141c12.566-0.563-23.563-45.211-23.563-45.211L565.26,567.414
				c40.891-22.862,65.479-39.981,92.511-57.458c24.934-16.118,20.107-36.963,13.971-49.751
				c-15.444-32.192-144.512-216.526-175.957-216.526c0,0-95.77,0-122.687,0s-214.33,113.511-238.999,131.46
				C94.153,404.201,20.351,511.764,20.351,511.764S20.193,558.426,36.982,540.064z M561.058,421.579l52.322,61.172l-49.544,40.476
				L561.058,421.579z"/>
		</defs>
		<clipPath id="SVGID_4_">
			<use xlink:href="#SVGID_3_"  overflow="visible"/>
		</clipPath>
		
			<linearGradient id="SVGID_5_" gradientUnits="userSpaceOnUse" x1="1012.0457" y1="476.7302" x2="1012.0457" y2="584.2476" gradientTransform="matrix(-1 0 0 1 1355.0444 160.6748)">
			<stop  offset="0" style="stop-color:#0F2B4E;stop-opacity:0"/>
			<stop  offset="1" style="stop-color:#0F2E45"/>
		</linearGradient>
		<rect x="1.408" y="615.206" clip-path="url(#SVGID_4_)" fill="url(#SVGID_5_)" width="683.182" height="136.444"/>
	</g>
</g>
</svg>
