<?xml version="1.0" encoding="utf-8"?>
<!-- Generator: Adobe Illustrator 16.0.0, SVG Export Plug-In . SVG Version: 6.00 Build 0)  -->
<!DOCTYPE svg PUBLIC "-//W3C//DTD SVG 1.1//EN" "http://www.w3.org/Graphics/SVG/1.1/DTD/svg11.dtd">
<svg version="1.1" xmlns="http://www.w3.org/2000/svg" xmlns:xlink="http://www.w3.org/1999/xlink" x="0px" y="0px"
	 width="1172.502px" height="896.39px" viewBox="0 0 1172.502 896.39" enable-background="new 0 0 1172.502 896.39"
	 xml:space="preserve">
<symbol  id="Novo_símbolo_5" viewBox="-17.345 -17.344 34.688 34.688">
	<g opacity="0.1">
		<path fill="#E9CF84" d="M17.343,0c0-9.579-7.765-17.344-17.344-17.344C-9.58-17.344-17.345-9.579-17.345,0
			c0,9.579,7.765,17.344,17.344,17.344C9.578,17.344,17.343,9.579,17.343,0z"/>
	</g>
	<text transform="matrix(1 0 0 -1 -6.3193 -7.873)" fill="#FFF3EC" font-family="'MyriadPro-Regular'" font-size="24.224">#</text>
</symbol>
<symbol  id="Novo_símbolo_6" viewBox="-17.344 -17.344 34.688 34.688">
	<g opacity="0.1">
		<path fill="#E9CF84" d="M17.344,0c0-9.579-7.765-17.344-17.344-17.344c-9.579,0-17.344,7.766-17.344,17.344
			c0,9.579,7.765,17.344,17.344,17.344C9.579,17.345,17.344,9.58,17.344,0z"/>
	</g>
	<g>
		<text transform="matrix(1 0 0 -1 -4.9561 -7.6367)" fill="#E9CF84" font-family="'PancettaPro-SemiBold'" font-size="19.2124">#</text>
	</g>
</symbol>
<g id="azul">
</g>
<g id="sem_textura">
</g>
<g id="degrades">
</g>
<g id="cometa">
</g>
<g id="_x30_1">
</g>
<g id="_x30_1azul">
</g>
<g id="fundao">
</g>
<g id="atras_planeta">
</g>
<g id="planeta">
</g>
<g id="Camada_19">
</g>
<g id="crateras">
</g>
<g id="Camada_6">
</g>
<g id="aneis">
</g>
<g id="menina_face">
</g>
<g id="img_apagar" display="none">
</g>
<g id="texto_e_menina">
</g>
<g id="satelite">
</g>
<g id="cabelo">
</g>
<g id="texto">
</g>
<g id="texto_em_cima_planeta">
</g>
<g id="cometinhas">
</g>
<g id="margens">
</g>
<g id="anotacoes">
</g>
<g id="Camada_18">
	<path fill="#FF4747" d="M1172.502,896.39V428.013c-103.551-45.966-218.175-71.52-338.771-71.52
		c-357.417,0-662.431,224.345-781.92,539.896H1172.502z"/>
	<g>
		<g>
			<path fill="#D44949" d="M765.859,362.714l0.25-3.25c0,0,42.25,23.25,74.25,44.25s70.146,48.75,70.146,48.75l-28.5,2.5
				c0,0-33.646-33.767-56.646-50.008C802.359,388.714,765.859,362.714,765.859,362.714z"/>
			<path fill="#D44949" d="M821.638,361.274l-1.172-5.781c0,0,39.844,27.17,69.697,51.123s64.696,53.343,64.696,53.343
				l-31.119,1.546c0,0-28.356-36.108-49.704-54.468C852.688,388.678,821.638,361.274,821.638,361.274z"/>
			<path fill="#D44949" d="M902.062,359.444l5.199,0.038c0,0,33.557,21.597,63.898,44.929s56.854,51.553,56.854,51.553l-5.955,2.482
				c0,0-34.822-33.318-56.545-51.232S902.062,359.444,902.062,359.444z"/>
		</g>
		<g>
			<g>
				<g>
					<polygon fill="#FFFFFF" points="902.062,359.545 907.325,360.089 907.325,78.193 902.062,78.193 					"/>
					<g>
						<polygon fill="#268D87" points="902.062,11.296 902.062,87.62 1042.868,67.882 1015.672,57.354 1066.555,36.956 						"/>
						<polyline fill="#33CACA" points="902.062,11.296 1046.158,39.589 1006.329,53.958 1025.761,62.618 902.062,82.356 						"/>
					</g>
				</g>
				<g>
					<g>
						<circle fill="#33CACA" cx="795.698" cy="103.937" r="29.122"/>
						<circle fill="#FFFFFF" cx="793.963" cy="105.447" r="27.496"/>
					</g>
					<polygon fill="#E4950A" points="799.64,127.135 789.578,127.135 790.093,120.562 799.125,120.562 					"/>
					<g>
						<path fill="#FFA800" d="M794.849,84.322c-8.265,0-14.964,6.429-14.964,14.358c0,0,0,5.896,0,9.385
							c0,5.816,7.408,14.539,14.964,14.539c7.555,0,14.963-8.723,14.963-14.539c0-3.489,0-9.385,0-9.385
							C809.812,90.751,803.112,84.322,794.849,84.322z"/>
						<path fill="#5E478F" d="M812.95,105.431c-3.232-4.041,1.049-3.779,1.75-6.91c1.079-4.808-3.43-7.793-6.212-7.831
							c1.323-7.482-6.401-2.094-8.083-7.358c-0.654-2.046-7.009-4.232-10.043,0.631c-1.37,2.197-3.373-1.462-5.797-1.059
							c-3.846,0.642-3.525,2.361-3.939,4.008c-0.716,2.843-1.699,1.134-4.646,2.963c-3.037,2.342-0.516,4.371-0.707,4.949
							c0.201,3.436-2.393,2.794-3.031,5.051c-0.639,2.258-0.505,4.396,2.377,5.588c1.967,0.271-2.68,7.343,4.199,8.252
							c4.463,0,2.27-2.986,4.139-2.986c5.322,0-0.676-7.193,3.292-9.793c1.208,0.479,6.801,6.365,19.752,6.613
							c3.646,0.674,2.683,5.023,2.364,6.311S816.991,109.269,812.95,105.431z"/>
					</g>
				</g>
				<g>
					<g>
						<path fill="#FFFFFF" d="M851.267,162.958c0,0-36.597-33.344-42.383-33.344c-5.787,0-29.045,0-29.045,0
							c-6.76,0-33.01,39.629-36.33,46.549c-1.32,2.75-2.357,7.23,3.003,10.696c5.812,3.757,19.888,14.035,19.888,14.035
							l-4.291,152.347c0,0-7.767,14.24-5.065,14.361c2.509,0.113,10.044-5.845,11.106-6.695l0.098-0.006l0.016-0.084
							c0.003-0.003,0.021-0.018,0.021-0.018l-0.018-0.008l24.441-144.99l3.861-1.721l23.466,145.97h0.034l-0.006,0.002
							c0,0,8.539,6.925,11.24,6.804c2.326-0.105-2.802-6.963-4.272-13.508l-2.837-188.512c0,0,9.052,5.518,17.481,8.677
							c4.56,1.709,8.938,2.688,11.603,1.644c4.712-1.846,48.824-30.066,48.824-30.066v-5.477L851.267,162.958z M756.055,181.011
							l11.248-13.15l-0.597,21.852L756.055,181.011z"/>
						<path fill="#D47219" d="M792.708,215.802l-3.49,0.953l-24.095,142.234c0,0-3.829,6.066-4.87,7.43
							c4.135-2.395,7.994-5.518,7.994-5.518L792.708,215.802z"/>
						<polygon fill="#D47219" points="767.303,162.937 767.303,167.86 756.055,181.011 766.72,189.711 766.544,192.993 
							751.517,181.27 						"/>
					</g>
					<polygon fill="#268D87" points="816.838,134.018 821.242,137.302 812.402,160.233 807.716,160.233 					"/>
					<polygon fill="#268D87" points="773.509,133.937 769.872,138.085 782.484,162.373 787.171,162.373 					"/>
					<polygon fill="#268D87" points="767.089,174.501 766.935,180.712 789.166,168.577 788.532,163.933 					"/>
					<polygon fill="#268D87" points="824.141,174.549 824.141,180.244 801.773,168.577 802.407,163.933 					"/>
					<polygon fill="#268D87" points="824.141,179.703 802.027,168.616 801.773,169.929 803.78,170.976 787.493,170.976 
						789.166,170.104 789.166,168.577 767.013,178.993 766.935,181.157 785.067,172.413 806.399,172.413 824.276,181.698 					"/>
					<rect x="780.595" y="155.276" fill="#33CACA" width="32.362" height="15.699"/>
					<rect x="780.595" y="163.837" fill="#268D87" width="8.041" height="3.607"/>
					<circle fill="#268D87" cx="784.616" cy="160.233" r="2.205"/>
					<rect x="804.916" y="163.837" fill="#268D87" width="8.041" height="3.607"/>
					<polygon fill="#D47219" points="824.556,164.921 820.728,163.126 823.4,353.58 829.72,360.64 827.017,353.421 					"/>
					<g>
						<polygon fill="#1B6660" points="820.881,172.962 824.685,175.138 824.77,182.073 820.961,179.976 						"/>
						<polygon fill="#1B6660" points="820.97,178.105 824.746,180.155 824.77,182.073 820.979,179.991 						"/>
					</g>
				</g>
				<g>
					<rect x="776.295" y="127.135" fill="#33CACA" width="36.662" height="3.081"/>
					<rect x="776.295" y="129.445" fill="#268D87" width="36.662" height="1.899"/>
				</g>
			</g>
			<path fill="#D47219" d="M824.061,165.055c0,0,9.025,5.933,17.454,9.093c4.561,1.709,8.939,2.688,11.604,1.643
				c4.711-1.846,48.943-30.066,48.943-30.066v-1.477c0,0-47.174,30.027-51.799,30.027c-6,0-29.535-11.148-29.535-11.148"/>
		</g>
	</g>
	<path fill="#D34949" d="M1172.502,896.39V466.013c-62.399-14.869-127.506-22.756-194.458-22.756
		c-323.695,0-604.405,184.013-743.253,453.133H1172.502z"/>
</g>
</svg>
