<?xml version="1.0" encoding="utf-8"?>
<!-- Generator: Adobe Illustrator 17.0.0, SVG Export Plug-In . SVG Version: 6.00 Build 0)  -->
<!DOCTYPE svg PUBLIC "-//W3C//DTD SVG 1.1//EN" "http://www.w3.org/Graphics/SVG/1.1/DTD/svg11.dtd">
<svg version="1.1" xmlns="http://www.w3.org/2000/svg" xmlns:xlink="http://www.w3.org/1999/xlink" x="0px" y="0px"
	 width="67.815px" height="147.057px" viewBox="0 0 67.815 147.057" enable-background="new 0 0 67.815 147.057"
	 xml:space="preserve">
<g id="azul">
</g>
<g id="sem_textura">
</g>
<g id="cometa">
</g>
<g id="_x30_1">
</g>
<g id="_x30_1azul">
</g>
<g id="fundao">
</g>
<g id="atras_planeta">
</g>
<g id="planeta">
</g>
<g id="crateras">
</g>
<g id="Camada_6">
</g>
<g id="aneis">
</g>
<g id="texto_e_menina">
	<g>
		<g>
			<g>
				<g>
					<g>
						<path fill="#D74949" d="M33.841,0.057c0,0,11.429-5,11.429,78.333c18.211,55.333,22.545,68.667,22.545,68.667H45.654l-0.43-4
							H33.841V0.057z"/>
					</g>
					<polygon fill="#FF4747" points="43.981,90.391 52.231,147.057 45.27,147.057 					"/>
				</g>
				<g>
					<path fill="#FF4747" d="M33.974,143.057h-11.82l-1.666,4H0c0,0,4.333-13.333,22.545-68.667
						c0-82.333,11.296-78.333,11.296-78.333L33.974,143.057z"/>
					<polygon fill="#D74949" points="23.833,90.391 15.583,147.057 22.545,147.057 					"/>
				</g>
			</g>
			<g>
				<circle fill="#FFA400" cx="34.407" cy="33.081" r="3.582"/>
				<circle fill="#FFA400" cx="34.407" cy="46.432" r="3.582"/>
				<circle fill="#FFA400" cx="34.407" cy="60.325" r="3.582"/>
			</g>
		</g>
		<g>
			<rect x="38.099" y="123.578" fill="#C13E3E" width="2.788" height="19.48"/>
			<rect x="32.58" y="123.578" fill="#C13E3E" width="2.788" height="19.48"/>
			<rect x="27.061" y="123.578" fill="#C13E3E" width="2.788" height="19.48"/>
		</g>
	</g>
</g>
<g id="cabelo">
</g>
<g id="texto">
</g>
<g id="Camada_12">
</g>
<g id="margens">
</g>
<g id="Camada_13">
</g>
</svg>
