<?xml version="1.0" encoding="utf-8"?>
<!-- Generator: Adobe Illustrator 16.0.0, SVG Export Plug-In . SVG Version: 6.00 Build 0)  -->
<!DOCTYPE svg PUBLIC "-//W3C//DTD SVG 1.1//EN" "http://www.w3.org/Graphics/SVG/1.1/DTD/svg11.dtd">
<svg version="1.1" xmlns="http://www.w3.org/2000/svg" xmlns:xlink="http://www.w3.org/1999/xlink" x="0px" y="0px"
	 width="15.136px" height="368.081px" viewBox="0 0 15.136 368.081" enable-background="new 0 0 15.136 368.081"
	 xml:space="preserve">
<symbol  id="Novo_símbolo_5" viewBox="-17.345 -17.344 34.688 34.688">
	<g opacity="0.1">
		<path fill="#E9CF84" d="M17.343,0c0-9.579-7.765-17.344-17.344-17.344C-9.58-17.344-17.345-9.579-17.345,0
			c0,9.579,7.765,17.344,17.344,17.344C9.578,17.344,17.343,9.579,17.343,0z"/>
	</g>
	<text transform="matrix(1 0 0 -1 -6.3193 -7.873)" fill="#FFF3EC" font-family="'MyriadPro-Regular'" font-size="24.224">#</text>
</symbol>
<symbol  id="Novo_símbolo_6" viewBox="-17.344 -17.344 34.688 34.688">
	<g opacity="0.1">
		<path fill="#E9CF84" d="M17.344,0c0-9.579-7.765-17.344-17.344-17.344c-9.579,0-17.344,7.766-17.344,17.344
			c0,9.579,7.765,17.344,17.344,17.344C9.579,17.345,17.344,9.58,17.344,0z"/>
	</g>
	<g>
		<text transform="matrix(1 0 0 -1 -4.9561 -7.6367)" fill="#E9CF84" font-family="'PancettaPro-SemiBold'" font-size="19.2124">#</text>
	</g>
</symbol>
<g id="azul">
</g>
<g id="sem_textura">
</g>
<g id="degrades">
</g>
<g id="cometa">
</g>
<g id="_x30_1">
</g>
<g id="_x30_1azul">
</g>
<g id="fundao">
</g>
<g id="atras_planeta">
</g>
<g id="planeta">
</g>
<g id="Camada_19">
</g>
<g id="crateras">
</g>
<g id="Camada_6">
</g>
<g id="aneis">
</g>
<g id="menina_face">
</g>
<g id="img_apagar" display="none">
</g>
<g id="texto_e_menina">
	<polygon opacity="0.2" fill="#E3E3E3" points="7.136,368.081 0,0 15.136,0 	"/>
</g>
<g id="satelite">
</g>
<g id="cabelo">
</g>
<g id="texto">
</g>
<g id="texto_em_cima_planeta">
</g>
<g id="cometinhas">
</g>
<g id="margens">
</g>
<g id="anotacoes">
</g>
<g id="Camada_18">
</g>
</svg>
