<?xml version="1.0" encoding="utf-8"?>
<!-- Generator: Adobe Illustrator 21.0.1, SVG Export Plug-In . SVG Version: 6.00 Build 0)  -->
<svg version="1.1" id="Layer_1" xmlns="http://www.w3.org/2000/svg" xmlns:xlink="http://www.w3.org/1999/xlink" x="0px" y="0px"
	 viewBox="0 0 357.3 286.8" style="enable-background:new 0 0 357.3 286.8;" xml:space="preserve">
<style type="text/css">
	.st0{fill:#0E2E45;stroke:#231F20;stroke-miterlimit:10;}
	.st1{clip-path:url(#SVGID_2_);fill:#0F3349;}
	.st2{clip-path:url(#SVGID_2_);fill:#0E2E45;stroke:#48C2C5;stroke-miterlimit:10;}
	.st3{opacity:0.2;clip-path:url(#SVGID_2_);fill:none;stroke:#48C2C5;stroke-miterlimit:10;}
	.st4{clip-path:url(#SVGID_2_);}
	.st5{opacity:0.2;}
	.st6{fill:none;stroke:#48C2C5;stroke-miterlimit:10;}
	.st7{fill:#0E364F;stroke:#48C2C5;stroke-miterlimit:10;}
	.st8{opacity:0.2;fill:none;stroke:#48C2C5;stroke-miterlimit:10;}
	.st9{clip-path:url(#SVGID_2_);fill:#0E364F;stroke:#48C2C5;stroke-miterlimit:10;}
	.st10{clip-path:url(#SVGID_2_);fill:none;stroke:#48C2C5;stroke-miterlimit:10;}
	.st11{fill:#48C2C5;}
	.st12{opacity:0.8;}
	.st13{fill:#FFFFFF;}
	.st14{opacity:0.9;fill:#FFFFFF;}
	.st15{fill-rule:evenodd;clip-rule:evenodd;fill:#F04B4B;}
	.st16{fill-rule:evenodd;clip-rule:evenodd;fill:#FFFFFF;}
	.st17{fill-rule:evenodd;clip-rule:evenodd;fill:#FBA919;}
</style>
<g>
	<g>
		<g>
			<g>
				<path class="st14" d="M37.7,125.7v2.1c0.3-0.2,0.7-0.5,1.2-0.8c0.5-0.3,1.6-0.7,3.2-1.2c1.6-0.5,3.3-0.8,5-0.8
					c3.6,0,6.2,0.9,7.7,2.8c1.6,1.9,2.3,4.7,2.3,8.6v11.4c0,3.8-0.9,6.6-2.8,8.5c-1.9,1.9-5,2.9-9.3,2.9c-1.5,0-2.8-0.2-4-0.5
					c-1.2-0.4-2.1-0.7-2.6-1.1l-0.7-0.5v14.8c-1.4,0.3-2.9,0.4-4.4,0.4l-4.4-0.4v-46.3c1.5-0.3,2.9-0.4,4.4-0.4L37.7,125.7z
					 M48.3,147.9v-11.4c0-2.1-0.3-3.6-1-4.5c-0.6-0.9-1.8-1.3-3.5-1.3c-1.3,0-2.4,0.2-3.5,0.6c-1,0.4-1.7,0.8-2.1,1.2l-0.5,0.6v14.9
					c0,2.1,0.4,3.6,1.3,4.5c0.9,0.9,2.3,1.4,4.4,1.4c1.8,0,3.1-0.4,3.8-1.3C48,151.5,48.3,150,48.3,147.9z"/>
				<path class="st14" d="M73.8,125.7v3.4c0.1-0.1,0.2-0.2,0.4-0.4c0.2-0.2,0.6-0.5,1.3-1c0.7-0.4,1.4-0.8,2.1-1.2
					c0.8-0.4,1.7-0.7,2.9-1c1.2-0.3,2.4-0.4,3.7-0.4c0.3,0.8,0.4,1.8,0.4,2.9c0,0.5,0,1-0.1,1.5c-0.1,0.5-0.1,0.9-0.2,1.1l-0.1,0.3
					c-1.3,0-2.6,0.2-3.8,0.6c-1.2,0.4-2.2,0.9-3,1.5c-0.8,0.6-1.5,1.2-2,1.8c-0.6,0.6-1,1.1-1.3,1.5l-0.4,0.7v21.7
					c-1.5,0.3-2.9,0.4-4.4,0.4l-4.4-0.4v-32.9c1.5-0.3,2.9-0.4,4.4-0.4L73.8,125.7z"/>
				<path class="st14" d="M100,112.4v7.8c-1.5,0.3-2.9,0.4-4.4,0.4l-4.4-0.4v-7.8c1.5-0.3,2.9-0.4,4.4-0.4L100,112.4z M100,125.7
					v32.9c-1.5,0.3-2.9,0.4-4.4,0.4l-4.4-0.4v-32.9c1.5-0.3,2.9-0.4,4.4-0.4L100,125.7z"/>
				<path class="st14" d="M108.2,158.6v-32.9c1.5-0.3,2.9-0.4,4.4-0.4l4.4,0.4v2.1c0.3-0.2,0.6-0.5,1.1-0.8c0.5-0.3,1.5-0.7,3.1-1.2
					c1.6-0.5,3.1-0.8,4.7-0.8c3.9,0,6.5,1,7.9,3.1c0.3-0.2,0.8-0.5,1.4-0.9c0.6-0.4,1.8-0.8,3.7-1.4c1.9-0.6,3.8-0.9,5.7-0.9
					c3.5,0,6,0.9,7.5,2.8c1.5,1.8,2.3,4.6,2.3,8.3v22.5c-1.4,0.3-2.9,0.4-4.4,0.4l-4.4-0.4v-22.5c0-2-0.3-3.4-0.9-4.3
					c-0.6-0.8-1.7-1.3-3.3-1.3c-2.6,0-4.5,0.8-5.7,2.3v25.7c-1.5,0.3-2.9,0.4-4.4,0.4l-4.4-0.4v-22.5c0-2-0.3-3.4-0.9-4.3
					c-0.6-0.8-1.7-1.3-3.3-1.3c-1.2,0-2.3,0.2-3.2,0.6c-0.9,0.4-1.6,0.8-1.9,1.2L117,133v25.7c-1.5,0.3-2.9,0.4-4.4,0.4L108.2,158.6
					z"/>
				<path class="st14" d="M162,147.9v-11.4c0-3.8,1.1-6.7,3.3-8.6c2.2-1.9,5.8-2.8,10.9-2.8c5.2,0,8.7,0.9,10.7,2.8
					c2,1.8,3,4.7,3,8.6v7.8c-2.2,0.5-5.4,0.8-9.6,0.8h-9.5v2.8c0,2.1,0.5,3.6,1.5,4.5c1,0.9,2.8,1.3,5.5,1.3c1.9,0,3.8-0.2,5.6-0.5
					c1.8-0.4,3.1-0.7,4-1c0.8-0.3,1.3-0.5,1.3-0.5l0.1,0.1c0,0.1,0.1,0.2,0.1,0.4c0,0.2,0.1,0.4,0.1,0.6c0,0.2,0.1,0.5,0.1,0.8
					c0,0.3,0.1,0.6,0.1,0.9c0,0.5,0,1-0.1,1.4c-0.1,0.5-0.2,0.8-0.3,1l-0.1,0.3c-2.8,1.4-6.4,2.1-10.8,2.1c-5.6,0-9.6-1-12.1-2.9
					C163.3,154.5,162,151.7,162,147.9z M170.8,139.6h10.8v-3.1c0-2.1-0.4-3.6-1.2-4.5c-0.8-0.9-2.2-1.3-4.2-1.3
					c-2,0-3.5,0.4-4.2,1.3c-0.8,0.9-1.2,2.4-1.2,4.5V139.6z"/>
				<path class="st14" d="M206.6,112.4v7.8c-1.5,0.3-2.9,0.4-4.4,0.4l-4.4-0.4v-7.8c1.5-0.3,2.9-0.4,4.4-0.4L206.6,112.4z
					 M206.6,125.7v32.9c-1.5,0.3-2.9,0.4-4.4,0.4l-4.4-0.4v-32.9c1.5-0.3,2.9-0.4,4.4-0.4L206.6,125.7z"/>
				<path class="st14" d="M223.6,125.7v3.4c0.1-0.1,0.2-0.2,0.4-0.4c0.2-0.2,0.6-0.5,1.3-1c0.7-0.4,1.4-0.8,2.1-1.2
					c0.8-0.4,1.7-0.7,2.9-1c1.2-0.3,2.4-0.4,3.7-0.4c0.3,0.8,0.4,1.8,0.4,2.9c0,0.5,0,1-0.1,1.5c-0.1,0.5-0.1,0.9-0.2,1.1l-0.1,0.3
					c-1.3,0-2.6,0.2-3.8,0.6c-1.2,0.4-2.2,0.9-3,1.5c-0.8,0.6-1.5,1.2-2,1.8c-0.6,0.6-1,1.1-1.3,1.5l-0.4,0.7v21.7
					c-1.5,0.3-2.9,0.4-4.4,0.4l-4.4-0.4v-32.9c1.5-0.3,2.9-0.4,4.4-0.4L223.6,125.7z"/>
				<path class="st14" d="M239.5,147.9v-11.4c0-3.8,1.1-6.6,3.3-8.5c2.2-1.9,5.9-2.9,10.9-2.9c5.1,0,8.7,1,11,2.9
					c2.2,1.9,3.4,4.8,3.4,8.5v11.4c0,3.8-1.1,6.6-3.4,8.5c-2.2,1.9-5.9,2.9-11,2.9c-5,0-8.7-1-10.9-2.9
					C240.7,154.5,239.5,151.7,239.5,147.9z M248.3,136.5v11.4c0,2.1,0.4,3.6,1.2,4.5c0.8,0.9,2.2,1.4,4.3,1.4c2,0,3.5-0.5,4.3-1.4
					c0.8-0.9,1.2-2.4,1.2-4.5v-11.4c0-2.1-0.4-3.6-1.2-4.5c-0.8-0.9-2.3-1.3-4.3-1.3c-2,0-3.5,0.4-4.3,1.3
					C248.7,132.8,248.3,134.4,248.3,136.5z"/>
			</g>
			<g>
				<path class="st14" d="M197.7,95.5V63.6c1.4-0.3,2.8-0.4,4.3-0.4l4.3,0.4v2.1c0.3-0.2,0.6-0.5,1.1-0.7c0.5-0.3,1.5-0.7,3-1.2
					c1.5-0.5,3-0.7,4.6-0.7c3.7,0,6.3,1,7.6,3c0.3-0.2,0.7-0.5,1.3-0.8c0.6-0.3,1.8-0.8,3.6-1.4c1.8-0.6,3.7-0.8,5.6-0.8
					c3.4,0,5.8,0.9,7.3,2.7c1.5,1.8,2.2,4.5,2.2,8v21.8c-1.4,0.3-2.8,0.4-4.3,0.4l-4.3-0.4V73.8c0-1.9-0.3-3.3-0.9-4.1
					c-0.6-0.8-1.6-1.2-3.2-1.2c-2.5,0-4.4,0.8-5.5,2.3v24.9c-1.4,0.3-2.8,0.4-4.3,0.4l-4.3-0.4V73.8c0-1.9-0.3-3.3-0.9-4.1
					c-0.6-0.8-1.7-1.2-3.2-1.2c-1.2,0-2.2,0.2-3.1,0.5c-0.9,0.4-1.5,0.7-1.9,1.1l-0.5,0.6v24.9c-1.4,0.3-2.8,0.4-4.3,0.4L197.7,95.5
					z"/>
				<path class="st14" d="M248.3,85.1v-11c0-3.7,1.1-6.5,3.2-8.3c2.1-1.8,5.6-2.7,10.6-2.7c5,0,8.5,0.9,10.4,2.7
					c1.9,1.8,2.9,4.6,2.9,8.4v7.6c-2.1,0.5-5.2,0.8-9.3,0.8h-9.2v2.7c0,2.1,0.5,3.5,1.5,4.4c1,0.9,2.8,1.3,5.3,1.3
					c1.9,0,3.6-0.2,5.4-0.5c1.7-0.3,3-0.7,3.8-1c0.8-0.3,1.2-0.5,1.2-0.5l0.1,0.1c0,0.1,0.1,0.2,0.1,0.4c0,0.2,0.1,0.4,0.1,0.5
					c0,0.2,0.1,0.4,0.1,0.7c0,0.3,0.1,0.6,0.1,0.9c0,0.5,0,0.9-0.1,1.4c-0.1,0.5-0.2,0.8-0.3,1l-0.1,0.3c-2.7,1.3-6.2,2-10.5,2
					c-5.4,0-9.3-0.9-11.7-2.8C249.5,91.5,248.3,88.8,248.3,85.1z M256.9,77.1h10.5v-3c0-2.1-0.4-3.5-1.1-4.4
					c-0.8-0.9-2.1-1.3-4.1-1.3c-2,0-3.3,0.4-4.1,1.3c-0.8,0.9-1.1,2.3-1.1,4.4V77.1z"/>
				<path class="st14" d="M300.4,95.5v-2.1c-0.3,0.2-0.6,0.5-1.1,0.8c-0.5,0.3-1.5,0.7-3.1,1.2c-1.6,0.5-3.2,0.7-4.8,0.7
					c-3.5,0-6-0.9-7.6-2.8c-1.5-1.9-2.3-4.6-2.3-8.3V63.6c1.4-0.3,2.8-0.4,4.3-0.4l4.3,0.4v21.5c0,2.1,0.3,3.5,1,4.4
					c0.6,0.9,1.8,1.3,3.5,1.3c1.2,0,2.4-0.2,3.4-0.6c1-0.4,1.7-0.8,2-1.2l0.6-0.6V63.6c1.4-0.3,2.8-0.4,4.3-0.4l4.3,0.4v31.9
					c-1.4,0.3-2.8,0.4-4.3,0.4L300.4,95.5z"/>
			</g>
			<g>
				<path class="st14" d="M111.1,256.8v4.3c-2.1,0.5-4.1,0.7-6.3,0.7l-6.3-0.7v-82.3c2.1-0.5,4.1-0.7,6.3-0.7l6.3,0.7v27.4
					c0.2-0.3,0.6-0.8,1.4-1.4c0.8-0.6,2.4-1.3,4.9-2.1c2.5-0.8,5.4-1.2,8.7-1.2c7.4,0,12.8,1.6,16,4.9c3.2,3.3,4.9,8.2,4.9,14.6
					v21.6c0,6.5-1.4,11.4-4.1,14.6c-2.8,3.3-7.3,4.9-13.5,4.9c-3.4,0-6.6-0.4-9.7-1.3c-3-0.9-5.2-1.8-6.6-2.7L111.1,256.8z
					 M134.4,242.6V221c0-4.1-0.8-7-2.3-8.8c-1.5-1.7-4.3-2.6-8.2-2.6c-4.7,0-7.9,0.9-9.8,2.7c-1.9,1.8-2.8,4.7-2.8,8.7v28
					c0.3,0.4,0.8,0.9,1.4,1.4c0.6,0.6,2.1,1.3,4.4,2.2c2.4,0.9,5,1.4,7.9,1.4c3.6,0,6-0.9,7.4-2.6
					C133.7,249.6,134.4,246.7,134.4,242.6z"/>
				<path class="st14" d="M192.9,261.1v-4.3c-0.5,0.4-1.2,0.9-2.1,1.5s-3,1.4-6.2,2.4c-3.2,1-6.5,1.5-10,1.5
					c-6.3,0-10.9-1.6-13.6-4.9c-2.8-3.3-4.1-8.2-4.1-14.6v-40.1c2.1-0.5,4.1-0.7,6.3-0.7l6.3,0.7v40.1c0,4.1,0.7,7,2.1,8.8
					c1.4,1.7,3.9,2.6,7.5,2.6c2.9,0,5.6-0.4,7.9-1.2c2.3-0.8,3.9-1.6,4.8-2.4l1.2-1.3v-46.5c2.1-0.5,4.2-0.7,6.3-0.7l6.4,0.7v58.6
					c-2.1,0.5-4.3,0.7-6.4,0.7L192.9,261.1z"/>
				<path class="st14" d="M251,266.3v-8.7c-0.3,0.4-0.9,0.9-1.7,1.4c-0.8,0.6-2.4,1.2-4.9,2c-2.5,0.8-5.3,1.1-8.4,1.1
					c-7.3,0-12.7-1.6-15.9-4.9c-3.3-3.3-4.9-8.2-4.9-14.6V221c0-6.5,1.4-11.4,4.1-14.6c2.8-3.3,7.3-4.9,13.5-4.9
					c3.4,0,6.6,0.4,9.7,1.3c3,0.9,5.2,1.8,6.5,2.7l2,1.3v-4.3c2-0.5,4.1-0.7,6.3-0.7l6.4,0.7v63.8c0,6.5-2.1,11.4-6.3,14.6
					c-4.2,3.3-11,4.9-20.5,4.9c-3.4,0-6.7-0.2-9.8-0.7c-3.2-0.5-5.5-0.9-7-1.4l-2.1-0.6c-0.6-1.1-0.8-2.5-0.8-4
					c0-0.7,0.1-1.4,0.2-2.1c0.1-0.7,0.3-1.2,0.4-1.5l0.2-0.5c5.1,1.8,11.5,2.7,19,2.7c5.3,0,9-0.9,11-2.6
					C250,273.4,251,270.4,251,266.3z M227.8,221v21.6c0,4.1,0.8,7,2.3,8.8c1.5,1.7,4.3,2.6,8.4,2.6c4.6,0,7.8-0.9,9.7-2.7
					c1.9-1.8,2.8-4.7,2.8-8.7v-28c-0.3-0.4-0.8-0.9-1.4-1.4c-0.6-0.6-2.1-1.3-4.4-2.2c-2.4-0.9-5-1.4-7.9-1.4c-3.6,0-6,0.9-7.4,2.6
					C228.5,214,227.8,216.9,227.8,221z"/>
			</g>
			<g>
				<path class="st15" d="M94.7,31.1c13.2-18.5,37.4-23.8,54.2-11.8c16.8,11.9,19.6,36.6,6.4,55.1c-13.2,18.5-37.4,23.8-54.2,11.8
					C84.4,74.2,81.5,49.6,94.7,31.1z"/>
				<polygon class="st16" points="100,85.4 147.7,18.5 149.3,19.6 101.6,86.5 				"/>
				<path class="st16" d="M160.9,26.4c-3,4.3-10.3,4.3-16.2,0.1c-5.9-4.2-8.2-11-5.1-15.3c3-4.3,10.3-4.3,16.2-0.1
					C161.6,15.3,163.9,22.2,160.9,26.4z"/>
				<path class="st17" d="M99.2,57.2c1.7-2.4,5.1-3,7.6-1.3c2.4,1.7,3,5.1,1.3,7.6c-1.8,2.5-5.1,3-7.6,1.3
					C98,63,97.5,59.6,99.2,57.2z"/>
				<path class="st17" d="M100.7,31.4c1.7-2.5,5.1-3,7.6-1.3c2.4,1.7,3,5.1,1.3,7.6c-1.7,2.4-5.2,3-7.6,1.3
					C99.5,37.2,99,33.8,100.7,31.4z"/>
				<path class="st17" d="M122.7,27.3c1.7-2.4,5.1-3,7.5-1.3c2.5,1.7,3,5.1,1.3,7.6c-1.7,2.4-5.1,3-7.6,1.3
					C121.5,33.1,120.9,29.7,122.7,27.3z"/>
				<path class="st17" d="M121,70.1c1.7-2.4,5.1-3,7.6-1.3c2.4,1.7,3,5.1,1.3,7.6c-1.7,2.4-5.1,3-7.6,1.3
					C119.9,75.9,119.3,72.5,121,70.1z"/>
				<path class="st17" d="M141.9,45.8c1.7-2.4,5.1-3,7.6-1.3c2.5,1.7,3,5.1,1.3,7.6c-1.7,2.4-5.1,3-7.5,1.3
					C140.7,51.6,140.2,48.2,141.9,45.8z"/>
				<path class="st17" d="M141.8,70.3c1.1-1.5,3.1-1.8,4.6-0.8c1.5,1.1,1.8,3.1,0.8,4.6c-1.1,1.5-3.1,1.8-4.6,0.8
					C141.1,73.8,140.7,71.8,141.8,70.3z"/>
				<g>
					<polygon class="st16" points="151.6,9.5 153,2.6 153.5,2.7 152.1,9.6 					"/>
					<path class="st16" d="M151.2,1.6c0.2-1.1,1.3-1.8,2.3-1.5c1.1,0.2,1.8,1.2,1.5,2.3c-0.2,1.1-1.2,1.7-2.3,1.5
						C151.7,3.7,151,2.6,151.2,1.6z"/>
				</g>
				<g>
					<polygon class="st16" points="159.4,14.6 165.5,11 165.2,10.6 159.1,14.2 					"/>
					<path class="st16" d="M167.1,12.4c0.9-0.6,1.2-1.8,0.7-2.7c-0.5-0.9-1.8-1.2-2.7-0.7c-0.9,0.5-1.2,1.7-0.7,2.7
						C164.9,12.6,166.1,13,167.1,12.4z"/>
				</g>
			</g>
		</g>
	</g>
</g>
</svg>
