<?xml version="1.0" encoding="utf-8"?>
<!-- Generator: Adobe Illustrator 17.0.0, SVG Export Plug-In . SVG Version: 6.00 Build 0)  -->
<!DOCTYPE svg PUBLIC "-//W3C//DTD SVG 1.1//EN" "http://www.w3.org/Graphics/SVG/1.1/DTD/svg11.dtd">
<svg version="1.1" id="Camada_1" xmlns="http://www.w3.org/2000/svg" xmlns:xlink="http://www.w3.org/1999/xlink" x="0px" y="0px"
	 width="719.97px" height="542px" viewBox="0 0 719.97 542" enable-background="new 0 0 719.97 542" xml:space="preserve">
<g>
	<path fill="#F04B4B" d="M455.609,227.096c-15.342,8.994-101.813,64.1-16.037,117.155c6.014,3.72,11.341,6.474,16.037,8.369V227.096
		z"/>
	<path fill="#F04B4B" d="M563.778,227.096c15.35,8.994,101.805,64.1,16.021,117.155c-6.021,3.72-11.326,6.474-16.021,8.369V227.096z
		"/>
	<g>
		<g>
			<path fill="#F04B4B" d="M486.13,369.094l-27.152-22.199c0,0-38.235,81.408-14.804,150.508l43.181-11.123
				C487.355,486.28,466.373,417.204,486.13,369.094z"/>
			<path fill="#FBA919" d="M500.887,504.798c-0.975-18.564-16.325-33.314-35.123-33.314h-6.161c-18.799,0-34.14,14.75-35.123,33.314
				H500.887z"/>
		</g>
		<g>
			<path fill="#F04B4B" d="M553.966,369.094l27.159-22.199c0,0,38.227,81.408,14.789,150.508l-43.173-11.123
				C552.741,486.28,573.708,417.204,553.966,369.094z"/>
			<path fill="#FBA919" d="M539.224,504.798c0.952-18.564,16.31-33.314,35.115-33.314h6.162c18.798,0,34.132,14.75,35.107,33.314
				H539.224z"/>
		</g>
	</g>
	<g>
		<g>
			<g>
				<rect x="394.208" y="162.287" fill="#FEB913" width="40.707" height="13.572"/>
				<path fill="#F04B4B" d="M404.051,169.065c0,9.882-7.987,17.901-17.878,17.901c-9.875,0-17.893-8.018-17.893-17.901
					c0-9.867,8.018-17.886,17.893-17.886C396.064,151.179,404.051,159.197,404.051,169.065z"/>
			</g>
			<g>
				<rect x="583.551" y="162.287" fill="#FEB913" width="40.716" height="13.572"/>
				<path fill="#F04A4B" d="M614.392,169.065c0,9.882,8.011,17.901,17.902,17.901c9.874,0,17.877-8.018,17.877-17.901
					c0-9.867-8.002-17.886-17.877-17.886C622.403,151.179,614.392,159.197,614.392,169.065z"/>
			</g>
		</g>
		<path fill="#FEB913" d="M602.677,192.511c0,20.444-16.568,37.011-37.011,37.011H452.185c-20.444,0-37.011-16.567-37.011-37.011
			v-48.118c0-20.436,16.567-37.003,37.011-37.003h113.481c20.443,0,37.011,16.567,37.011,37.003V192.511z"/>
		<rect x="415.174" y="150.571" fill="#F58B22" width="187.503" height="32.065"/>
		<g>
			<g>
				<g>
					<path fill="#FFFFFF" d="M476.286,164.852c0.445,13.627-10.249,25.015-23.875,25.444c-13.611,0.452-25.007-10.241-25.451-23.86
						c-0.422-13.627,10.256-25.007,23.875-25.451C464.462,140.548,475.842,151.226,476.286,164.852z"/>
					<path fill="#221E1D" d="M467.652,165.133c0.28,8.853-6.661,16.255-15.506,16.536c-8.861,0.273-16.271-6.661-16.56-15.506
						c-0.273-8.868,6.669-16.263,15.537-16.544C459.961,149.331,467.371,156.28,467.652,165.133z"/>
				</g>
				<path fill="#FFFFFF" d="M460.835,164.104c0.062,2.067-1.545,3.768-3.581,3.822c-2.043,0.07-3.752-1.537-3.83-3.573
					c-0.062-2.051,1.545-3.752,3.588-3.822C459.064,160.461,460.765,162.076,460.835,164.104z"/>
			</g>
			<g>
				<g>
					<path fill="#FFFFFF" d="M592.833,164.852c0.422,13.627-10.257,25.015-23.86,25.444c-13.634,0.452-25.037-10.241-25.474-23.86
						c-0.422-13.627,10.264-25.007,23.883-25.451C581.001,140.548,592.396,151.226,592.833,164.852z"/>
					<path fill="#221E1D" d="M584.191,165.133c0.281,8.853-6.669,16.255-15.514,16.536c-8.861,0.273-16.271-6.661-16.544-15.506
						c-0.273-8.868,6.677-16.263,15.514-16.544C576.516,149.331,583.91,156.28,584.191,165.133z"/>
				</g>
				<path fill="#FFFFFF" d="M577.374,164.104c0.062,2.067-1.537,3.768-3.581,3.822c-2.043,0.07-3.744-1.537-3.822-3.573
					c-0.054-2.051,1.553-3.76,3.573-3.822C575.595,160.461,577.312,162.076,577.374,164.104z"/>
			</g>
		</g>
		<polygon fill="#E9351E" points="510.817,151.765 499.717,182.605 524.381,182.605 		"/>
		<path fill="#221E1D" d="M559.301,194.961c-0.671-1.568-2.488-2.293-4.048-1.615c-49.639,21.271-86.884,0.398-87.297,0.164
			c-1.474-0.858-3.362-0.367-4.22,1.116c-0.85,1.474-0.327,3.362,1.116,4.22c1.077,0.624,18.307,10.351,45.083,10.351
			c13.72,0,29.921-2.55,47.751-10.187C559.247,198.338,559.979,196.536,559.301,194.961z"/>
		<path fill="#FDDA0E" d="M484.664,122.195c0,4.095-3.323,7.41-7.402,7.41c-4.095,0-7.395-3.315-7.395-7.41
			c0-4.079,3.299-7.402,7.395-7.402C481.34,114.793,484.664,118.116,484.664,122.195z"/>
		<path fill="#FDDA0E" d="M506.051,122.195c0,4.095-3.307,7.41-7.41,7.41c-4.088,0-7.395-3.315-7.395-7.41
			c0-4.079,3.307-7.402,7.395-7.402C502.744,114.793,506.051,118.116,506.051,122.195z"/>
		<path fill="#FDDA0E" d="M527.431,122.195c0,4.095-3.307,7.41-7.41,7.41c-4.079,0-7.394-3.315-7.394-7.41
			c0-4.079,3.315-7.402,7.394-7.402C524.124,114.793,527.431,118.116,527.431,122.195z"/>
		<path fill="#FDDA0E" d="M548.802,122.195c0,4.095-3.307,7.41-7.379,7.41c-4.11,0-7.41-3.315-7.41-7.41
			c0-4.079,3.299-7.402,7.41-7.402C545.496,114.793,548.802,118.116,548.802,122.195z"/>
	</g>
	<g>
		<g>
			<path fill="#FBA919" d="M563.95,229.522H456.608c0,0-81.416,159.142,51.822,157.91
				C641.669,386.192,563.95,229.522,563.95,229.522z"/>
			<path fill="#FBA919" d="M583.091,286.274c-6.279-30.826-19.141-56.753-19.141-56.753H456.608c0,0-13.252,25.927-20.311,56.753
				H583.091z"/>
			<rect x="464.961" y="277.796" opacity="0.3" fill="#FFFFFF" width="86.353" height="39.912"/>
			<path fill="#FFFFFF" d="M484.297,295.08c0,4.088-3.307,7.394-7.402,7.394s-7.387-3.307-7.387-7.394
				c0-4.102,3.292-7.402,7.387-7.402S484.297,290.978,484.297,295.08z"/>
			<path fill="#FFFFFF" d="M505.684,295.08c0,4.088-3.315,7.394-7.402,7.394c-4.095,0-7.402-3.307-7.402-7.394
				c0-4.102,3.307-7.402,7.402-7.402C502.37,287.678,505.684,290.978,505.684,295.08z"/>
			<path fill="#FFFFFF" d="M527.072,295.08c0,4.088-3.315,7.394-7.402,7.394c-4.095,0-7.41-3.307-7.41-7.394
				c0-4.102,3.315-7.402,7.41-7.402C523.757,287.678,527.072,290.978,527.072,295.08z"/>
			<path fill="#FFFFFF" d="M548.444,295.08c0,4.088-3.299,7.394-7.386,7.394c-4.095,0-7.426-3.307-7.426-7.394
				c0-4.102,3.331-7.402,7.426-7.402C545.144,287.678,548.444,290.978,548.444,295.08z"/>
		</g>
	</g>
	<path fill="#F04B4B" d="M554.083,107.672v-1.342c0-22.402-18.143-40.559-40.544-40.559h-10.811
		c-22.394,0-40.552,18.158-40.552,40.559v1.342H554.083z"/>
</g>
<g>
	<g>
		<rect x="177.418" y="177.255" fill="#F9B233" width="72.774" height="56.986"/>
		<rect x="177.418" y="188.915" opacity="0.5" fill="#FFFFFF" width="72.774" height="12.363"/>
		<rect x="177.418" y="206.778" opacity="0.5" fill="#FFFFFF" width="72.774" height="12.362"/>
	</g>
	<g>
		<path fill="#FBA919" d="M310.977,184.805c1.989-7.909,3.073-16.185,3.073-24.718c0-55.38-44.881-100.253-100.253-100.253
			c-55.364,0-100.252,44.873-100.252,100.253c0,8.533,1.084,16.809,3.081,24.718H310.977z"/>
		<path opacity="0.5" fill="#FFFFFF" d="M179.025,162.832h63.18c7.581,0,13.727-6.146,13.727-13.735V69.101
			c-12.807-5.928-27.073-9.267-42.135-9.267c-17.596,0-34.124,4.532-48.507,12.519v76.744
			C165.29,156.686,171.436,162.832,179.025,162.832z"/>
		<g>
			<g>
				<polygon fill="#FBA919" points="150.423,98.951 136.578,107.235 104.005,44.827 110.058,41.216 				"/>
				<path fill="#F04B4B" d="M114.208,32.698c3.097,5.195,1.404,11.903-3.784,15.015c-5.194,3.105-11.91,1.404-15.007-3.775
					c-3.104-5.203-1.427-11.918,3.784-15.007C104.372,25.819,111.103,27.519,114.208,32.698z"/>
			</g>
			<g>
				<polygon fill="#FBA919" points="277.18,98.951 291.017,107.235 323.605,44.827 317.553,41.216 				"/>
				<path fill="#F04B4B" d="M313.402,32.698c-3.089,5.195-1.404,11.903,3.791,15.015c5.18,3.105,11.895,1.404,15-3.775
					c3.104-5.203,1.404-11.918-3.776-15.007C323.239,25.819,316.499,27.519,313.402,32.698z"/>
			</g>
		</g>
		<g>
			<g>
				<path fill="#FFFFFF" d="M198.993,114.808c0.491,15.14-11.403,27.838-26.582,28.322c-15.132,0.491-27.83-11.411-28.306-26.574
					c-0.506-15.164,11.396-27.846,26.559-28.322C185.827,87.743,198.517,99.645,198.993,114.808z"/>
				<path fill="#221E1D" d="M189.392,115.104c0.304,9.859-7.418,18.104-17.277,18.416c-9.859,0.312-18.096-7.418-18.416-17.269
					c-0.312-9.867,7.418-18.104,17.277-18.424C180.819,97.516,189.079,105.253,189.392,115.104z"/>
			</g>
			<path fill="#FFFFFF" d="M181.802,113.973c0.062,2.278-1.716,4.165-4.002,4.252c-2.262,0.069-4.157-1.716-4.251-3.994
				c-0.062-2.27,1.732-4.181,4.001-4.244C179.821,109.918,181.724,111.704,181.802,113.973z"/>
		</g>
		<g>
			<g>
				<path fill="#FFFFFF" d="M277.92,112.281c0.484,15.156-11.403,27.846-26.566,28.322c-15.179,0.499-27.846-11.403-28.33-26.567
					c-0.491-15.163,11.411-27.846,26.574-28.329C264.762,85.215,277.437,97.126,277.92,112.281z"/>
				<path fill="#221E1D" d="M268.311,112.585c0.32,9.859-7.418,18.096-17.269,18.416c-9.851,0.311-18.088-7.418-18.408-17.285
					c-0.319-9.835,7.41-18.096,17.269-18.4C259.754,94.997,268.007,102.734,268.311,112.585z"/>
			</g>
			<path fill="#FFFFFF" d="M260.722,111.462c0.078,2.27-1.716,4.172-3.994,4.251c-2.262,0.062-4.157-1.708-4.228-3.994
				c-0.085-2.27,1.716-4.188,3.97-4.251C258.756,107.398,260.651,109.176,260.722,111.462z"/>
		</g>
		<polygon fill="#6D5492" points="209.975,114.762 197.613,143.606 225.084,143.606 		"/>
		<path fill="#221E1D" d="M265.316,153.246c-0.733-1.747-2.769-2.566-4.501-1.817c-55.27,23.688-96.735,0.452-97.187,0.187
			c-1.638-0.951-3.736-0.398-4.68,1.24c-0.951,1.645-0.398,3.752,1.232,4.704c1.186,0.694,20.374,11.528,50.193,11.528
			c15.249,0,33.306-2.839,53.157-11.349C265.262,156.998,266.057,154.978,265.316,153.246z"/>
	</g>
	<rect x="129.34" y="223.251" fill="#FBA919" width="168.915" height="190.896"/>
	<rect x="164.346" y="252.095" fill="#F04B4B" width="96.158" height="133.215"/>
	<path fill="#FFFFFF" d="M185.889,271.322c0,4.555-3.674,8.245-8.229,8.245c-4.547,0-8.236-3.69-8.236-8.245
		c0-4.547,3.689-8.236,8.236-8.236C182.215,263.085,185.889,266.775,185.889,271.322z"/>
	<path fill="#FFFFFF" d="M209.695,271.322c0,4.555-3.682,8.245-8.229,8.245c-4.555,0-8.252-3.69-8.252-8.245
		c0-4.547,3.697-8.236,8.252-8.236C206.013,263.085,209.695,266.775,209.695,271.322z"/>
	<path fill="#FFFFFF" d="M233.5,271.322c0,4.555-3.689,8.245-8.236,8.245c-4.555,0-8.245-3.69-8.245-8.245
		c0-4.547,3.69-8.236,8.245-8.236C229.811,263.085,233.5,266.775,233.5,271.322z"/>
	<path fill="#FFFFFF" d="M257.306,271.322c0,4.555-3.681,8.245-8.237,8.245c-4.555,0-8.236-3.69-8.236-8.245
		c0-4.547,3.681-8.236,8.236-8.236C253.624,263.085,257.306,266.775,257.306,271.322z"/>
	<g>
		<path fill="#FBA919" d="M297.132,234.241c0,0,116.734,41.2,39.826,162.06l-39.826-31.59c-3.549,0,60.434-68.67,0-104.379V234.241z
			"/>
		<polygon fill="#6D5492" points="297.132,364.71 336.958,396.3 316.359,423.771 302.639,412.774 314.994,396.3 304.011,385.31 
			291.641,401.791 276.524,389.436 		"/>
		<path opacity="0.5" fill="#FFFFFF" d="M356.194,323.511c0,8.346-6.763,15.108-15.116,15.108c-8.331,0-15.108-6.763-15.108-15.108
			c0-8.338,6.778-15.108,15.108-15.108C349.431,308.403,356.194,315.173,356.194,323.511z"/>
	</g>
	<g>
		<path fill="#FBA919" d="M129.722,234.241c0,0-116.742,41.2-39.827,162.06l39.827-31.59c3.549,0-60.427-68.67,0-104.379V234.241z"
			/>
		<polygon fill="#6D5492" points="129.722,364.71 89.895,396.3 110.488,423.771 124.223,412.774 111.86,396.3 122.85,385.31 
			135.213,401.791 150.322,389.436 		"/>
		<path opacity="0.5" fill="#FFFFFF" d="M99.365,323.511c0,8.346-6.755,15.108-15.1,15.108c-8.347,0-15.108-6.763-15.108-15.108
			c0-8.338,6.762-15.108,15.108-15.108C92.61,308.403,99.365,315.173,99.365,323.511z"/>
	</g>
	<g>
		<path fill="#FBA919" d="M192.769,489.689c0,7.573-6.162,13.735-13.743,13.735H144.69c-7.589,0-13.728-6.162-13.728-13.735v-64.545
			c0-7.581,6.139-13.751,13.728-13.751h34.335c7.581,0,13.743,6.17,13.743,13.751V489.689z"/>
		<rect x="147.443" y="411.393" fill="#6D5492" width="28.837" height="92.032"/>
	</g>
	<g>
		<path fill="#FBA919" d="M299.893,491.054c0,7.581-6.162,13.743-13.743,13.743h-34.327c-7.597,0-13.743-6.162-13.743-13.743
			v-64.537c0-7.597,6.146-13.743,13.743-13.743h34.327c7.581,0,13.743,6.146,13.743,13.743V491.054z"/>
		<rect x="254.56" y="412.774" fill="#6D5492" width="28.845" height="92.024"/>
	</g>
</g>
</svg>
